<svg xmlns="http://www.w3.org/2000/svg" xmlns:xlink="http://www.w3.org/1999/xlink" width="500" zoomAndPan="magnify" viewBox="0 0 375 374.999991" height="500" preserveAspectRatio="xMidYMid meet" version="1.0"><defs><g/><clipPath id="347e38664c"><path d="M 65.601562 183.296875 L 134.601562 183.296875 L 134.601562 252.296875 L 65.601562 252.296875 Z M 65.601562 183.296875 " clip-rule="nonzero"/></clipPath><clipPath id="381db624d8"><path d="M 129 183.296875 L 131 183.296875 L 131 187 L 129 187 Z M 129 183.296875 " clip-rule="nonzero"/></clipPath><clipPath id="7c69a0edea"><path d="M 131 187 L 134.601562 187 L 134.601562 189 L 131 189 Z M 131 187 " clip-rule="nonzero"/></clipPath><clipPath id="e1eeaadd0e"><path d="M 117 183.296875 L 122 183.296875 L 122 188 L 117 188 Z M 117 183.296875 " clip-rule="nonzero"/></clipPath></defs><g fill="#1c2751" fill-opacity="1"><g transform="translate(58.456897, 175.089196)"><g><path d="M 4.984375 0 L 4.984375 -51.359375 L 23.984375 -51.359375 C 28.097656 -51.359375 31.5 -50.671875 34.1875 -49.296875 C 36.875 -47.929688 38.878906 -46.046875 40.203125 -43.640625 C 41.523438 -41.242188 42.1875 -38.554688 42.1875 -35.578125 C 42.1875 -32.742188 41.546875 -30.140625 40.265625 -27.765625 C 38.992188 -25.390625 37.015625 -23.476562 34.328125 -22.03125 C 31.640625 -20.59375 28.191406 -19.875 23.984375 -19.875 L 14.375 -19.875 L 14.375 0 Z M 14.375 -27.515625 L 23.40625 -27.515625 C 26.675781 -27.515625 29.03125 -28.234375 30.46875 -29.671875 C 31.914062 -31.117188 32.640625 -33.085938 32.640625 -35.578125 C 32.640625 -38.117188 31.914062 -40.109375 30.46875 -41.546875 C 29.03125 -42.992188 26.675781 -43.71875 23.40625 -43.71875 L 14.375 -43.71875 Z M 14.375 -27.515625 "/></g></g></g><g fill="#1c2751" fill-opacity="1"><g transform="translate(98.58412, 175.089196)"><g><path d="M 22.453125 0.875 C 18.785156 0.875 15.53125 0.09375 12.6875 -1.46875 C 9.851562 -3.03125 7.628906 -5.226562 6.015625 -8.0625 C 4.398438 -10.90625 3.59375 -14.1875 3.59375 -17.90625 C 3.59375 -21.664062 4.382812 -25.007812 5.96875 -27.9375 C 7.5625 -30.875 9.765625 -33.160156 12.578125 -34.796875 C 15.390625 -36.441406 18.703125 -37.265625 22.515625 -37.265625 C 26.085938 -37.265625 29.242188 -36.484375 31.984375 -34.921875 C 34.722656 -33.359375 36.863281 -31.21875 38.40625 -28.5 C 39.945312 -25.78125 40.71875 -22.757812 40.71875 -19.4375 C 40.71875 -18.90625 40.703125 -18.34375 40.671875 -17.75 C 40.648438 -17.164062 40.613281 -16.554688 40.5625 -15.921875 L 12.90625 -15.921875 C 13.101562 -13.085938 14.09375 -10.863281 15.875 -9.25 C 17.664062 -7.632812 19.832031 -6.828125 22.375 -6.828125 C 24.28125 -6.828125 25.878906 -7.253906 27.171875 -8.109375 C 28.472656 -8.960938 29.441406 -10.070312 30.078125 -11.4375 L 39.609375 -11.4375 C 38.929688 -9.144531 37.796875 -7.054688 36.203125 -5.171875 C 34.609375 -3.285156 32.648438 -1.804688 30.328125 -0.734375 C 28.003906 0.335938 25.378906 0.875 22.453125 0.875 Z M 22.515625 -29.640625 C 20.222656 -29.640625 18.195312 -28.988281 16.4375 -27.6875 C 14.675781 -26.394531 13.550781 -24.425781 13.0625 -21.78125 L 31.171875 -21.78125 C 31.023438 -24.175781 30.144531 -26.082031 28.53125 -27.5 C 26.914062 -28.925781 24.910156 -29.640625 22.515625 -29.640625 Z M 22.515625 -29.640625 "/></g></g></g><g fill="#1c2751" fill-opacity="1"><g transform="translate(138.05111, 175.089196)"><g><path d="M 4.765625 0 L 4.765625 -36.390625 L 13.0625 -36.390625 L 13.796875 -30.21875 C 14.921875 -32.375 16.546875 -34.085938 18.671875 -35.359375 C 20.796875 -36.628906 23.300781 -37.265625 26.1875 -37.265625 C 30.6875 -37.265625 34.179688 -35.84375 36.671875 -33 C 39.171875 -30.164062 40.421875 -26.015625 40.421875 -20.546875 L 40.421875 0 L 31.03125 0 L 31.03125 -19.65625 C 31.03125 -22.789062 30.394531 -25.1875 29.125 -26.84375 C 27.851562 -28.507812 25.875 -29.34375 23.1875 -29.34375 C 20.539062 -29.34375 18.375 -28.410156 16.6875 -26.546875 C 15 -24.691406 14.15625 -22.101562 14.15625 -18.78125 L 14.15625 0 Z M 4.765625 0 "/></g></g></g><g fill="#1c2751" fill-opacity="1"><g transform="translate(178.251691, 175.089196)"><g><path d="M 4.765625 0 L 4.765625 -36.390625 L 13.0625 -36.390625 L 13.796875 -30.21875 C 14.921875 -32.375 16.546875 -34.085938 18.671875 -35.359375 C 20.796875 -36.628906 23.300781 -37.265625 26.1875 -37.265625 C 30.6875 -37.265625 34.179688 -35.84375 36.671875 -33 C 39.171875 -30.164062 40.421875 -26.015625 40.421875 -20.546875 L 40.421875 0 L 31.03125 0 L 31.03125 -19.65625 C 31.03125 -22.789062 30.394531 -25.1875 29.125 -26.84375 C 27.851562 -28.507812 25.875 -29.34375 23.1875 -29.34375 C 20.539062 -29.34375 18.375 -28.410156 16.6875 -26.546875 C 15 -24.691406 14.15625 -22.101562 14.15625 -18.78125 L 14.15625 0 Z M 4.765625 0 "/></g></g></g><g fill="#1c2751" fill-opacity="1"><g transform="translate(218.452282, 175.089196)"><g><path d="M 9.3125 16.140625 L 17.75 -2.421875 L 15.546875 -2.421875 L 1.390625 -36.390625 L 11.59375 -36.390625 L 21.78125 -10.78125 L 32.421875 -36.390625 L 42.40625 -36.390625 L 19.296875 16.140625 Z M 9.3125 16.140625 "/></g></g></g><g fill="#1c2751" fill-opacity="1"><g transform="translate(58.456897, 248.312888)"><g/></g></g><g fill="#1c2751" fill-opacity="1"><g transform="translate(71.514456, 248.312888)"><g/></g></g><g fill="#1c2751" fill-opacity="1"><g transform="translate(84.572016, 248.312888)"><g/></g></g><g fill="#1c2751" fill-opacity="1"><g transform="translate(97.629577, 248.312888)"><g/></g></g><g fill="#1c2751" fill-opacity="1"><g transform="translate(110.687135, 248.312888)"><g/></g></g><g fill="#1c2751" fill-opacity="1"><g transform="translate(123.744694, 248.312888)"><g/></g></g><g fill="#1c2751" fill-opacity="1"><g transform="translate(136.819433, 248.312888)"><g><path d="M 15.40625 0 L 1.828125 -51.359375 L 11.890625 -51.359375 L 21.125 -10.484375 L 31.984375 -51.359375 L 42.328125 -51.359375 L 52.890625 -10.484375 L 62.140625 -51.359375 L 72.265625 -51.359375 L 58.328125 0 L 47.171875 0 L 36.96875 -38.078125 L 26.484375 0 Z M 15.40625 0 "/></g></g></g><g fill="#1c2751" fill-opacity="1"><g transform="translate(206.510543, 248.312888)"><g><path d="M 9.828125 -42.03125 C 8.117188 -42.03125 6.710938 -42.539062 5.609375 -43.5625 C 4.515625 -44.59375 3.96875 -45.894531 3.96875 -47.46875 C 3.96875 -49.03125 4.515625 -50.3125 5.609375 -51.3125 C 6.710938 -52.3125 8.117188 -52.8125 9.828125 -52.8125 C 11.535156 -52.8125 12.941406 -52.3125 14.046875 -51.3125 C 15.148438 -50.3125 15.703125 -49.03125 15.703125 -47.46875 C 15.703125 -45.894531 15.148438 -44.59375 14.046875 -43.5625 C 12.941406 -42.539062 11.535156 -42.03125 9.828125 -42.03125 Z M 5.140625 0 L 5.140625 -36.390625 L 14.53125 -36.390625 L 14.53125 0 Z M 5.140625 0 "/></g></g></g><g fill="#1c2751" fill-opacity="1"><g transform="translate(221.695526, 248.312888)"><g><path d="M 19.8125 0.875 C 16.582031 0.875 13.742188 0.347656 11.296875 -0.703125 C 8.847656 -1.753906 6.890625 -3.207031 5.421875 -5.0625 C 3.960938 -6.914062 3.082031 -9.066406 2.78125 -11.515625 L 12.25 -11.515625 C 12.539062 -10.097656 13.332031 -8.882812 14.625 -7.875 C 15.925781 -6.875 17.601562 -6.375 19.65625 -6.375 C 21.707031 -6.375 23.210938 -6.789062 24.171875 -7.625 C 25.128906 -8.457031 25.609375 -9.410156 25.609375 -10.484375 C 25.609375 -12.054688 24.921875 -13.125 23.546875 -13.6875 C 22.179688 -14.25 20.273438 -14.796875 17.828125 -15.328125 C 16.265625 -15.671875 14.675781 -16.085938 13.0625 -16.578125 C 11.445312 -17.066406 9.96875 -17.691406 8.625 -18.453125 C 7.28125 -19.210938 6.191406 -20.191406 5.359375 -21.390625 C 4.523438 -22.585938 4.109375 -24.066406 4.109375 -25.828125 C 4.109375 -29.054688 5.390625 -31.769531 7.953125 -33.96875 C 10.523438 -36.164062 14.132812 -37.265625 18.78125 -37.265625 C 23.082031 -37.265625 26.515625 -36.257812 29.078125 -34.25 C 31.648438 -32.25 33.179688 -29.488281 33.671875 -25.96875 L 24.796875 -25.96875 C 24.253906 -28.65625 22.222656 -30 18.703125 -30 C 16.941406 -30 15.582031 -29.65625 14.625 -28.96875 C 13.675781 -28.289062 13.203125 -27.4375 13.203125 -26.40625 C 13.203125 -25.332031 13.910156 -24.476562 15.328125 -23.84375 C 16.742188 -23.207031 18.628906 -22.617188 20.984375 -22.078125 C 23.523438 -21.492188 25.859375 -20.847656 27.984375 -20.140625 C 30.109375 -19.429688 31.804688 -18.378906 33.078125 -16.984375 C 34.359375 -15.585938 35 -13.59375 35 -11 C 35.039062 -8.75 34.445312 -6.71875 33.21875 -4.90625 C 32 -3.101562 30.238281 -1.6875 27.9375 -0.65625 C 25.644531 0.363281 22.9375 0.875 19.8125 0.875 Z M 19.8125 0.875 "/></g></g></g><g fill="#1c2751" fill-opacity="1"><g transform="translate(255.807251, 248.312888)"><g><path d="M 22.453125 0.875 C 18.785156 0.875 15.53125 0.09375 12.6875 -1.46875 C 9.851562 -3.03125 7.628906 -5.226562 6.015625 -8.0625 C 4.398438 -10.90625 3.59375 -14.1875 3.59375 -17.90625 C 3.59375 -21.664062 4.382812 -25.007812 5.96875 -27.9375 C 7.5625 -30.875 9.765625 -33.160156 12.578125 -34.796875 C 15.390625 -36.441406 18.703125 -37.265625 22.515625 -37.265625 C 26.085938 -37.265625 29.242188 -36.484375 31.984375 -34.921875 C 34.722656 -33.359375 36.863281 -31.21875 38.40625 -28.5 C 39.945312 -25.78125 40.71875 -22.757812 40.71875 -19.4375 C 40.71875 -18.90625 40.703125 -18.34375 40.671875 -17.75 C 40.648438 -17.164062 40.613281 -16.554688 40.5625 -15.921875 L 12.90625 -15.921875 C 13.101562 -13.085938 14.09375 -10.863281 15.875 -9.25 C 17.664062 -7.632812 19.832031 -6.828125 22.375 -6.828125 C 24.28125 -6.828125 25.878906 -7.253906 27.171875 -8.109375 C 28.472656 -8.960938 29.441406 -10.070312 30.078125 -11.4375 L 39.609375 -11.4375 C 38.929688 -9.144531 37.796875 -7.054688 36.203125 -5.171875 C 34.609375 -3.285156 32.648438 -1.804688 30.328125 -0.734375 C 28.003906 0.335938 25.378906 0.875 22.453125 0.875 Z M 22.515625 -29.640625 C 20.222656 -29.640625 18.195312 -28.988281 16.4375 -27.6875 C 14.675781 -26.394531 13.550781 -24.425781 13.0625 -21.78125 L 31.171875 -21.78125 C 31.023438 -24.175781 30.144531 -26.082031 28.53125 -27.5 C 26.914062 -28.925781 24.910156 -29.640625 22.515625 -29.640625 Z M 22.515625 -29.640625 "/></g></g></g><g fill="#1c2751" fill-opacity="1"><g transform="translate(295.274246, 248.312888)"><g><path d="M 8.796875 0.515625 C 7.085938 0.515625 5.679688 -0.0195312 4.578125 -1.09375 C 3.484375 -2.175781 2.9375 -3.472656 2.9375 -4.984375 C 2.9375 -6.554688 3.484375 -7.878906 4.578125 -8.953125 C 5.679688 -10.023438 7.085938 -10.5625 8.796875 -10.5625 C 10.515625 -10.5625 11.921875 -10.023438 13.015625 -8.953125 C 14.117188 -7.878906 14.671875 -6.554688 14.671875 -4.984375 C 14.671875 -3.472656 14.117188 -2.175781 13.015625 -1.09375 C 11.921875 -0.0195312 10.515625 0.515625 8.796875 0.515625 Z M 8.796875 0.515625 "/></g></g></g><path fill="#eda54a" d="M 130 217.796875 C 130 218.777344 129.953125 219.753906 129.855469 220.726562 C 129.761719 221.703125 129.617188 222.671875 129.425781 223.628906 C 129.234375 224.589844 129 225.539062 128.714844 226.476562 C 128.429688 227.414062 128.101562 228.335938 127.726562 229.238281 C 127.351562 230.144531 126.933594 231.027344 126.472656 231.890625 C 126.007812 232.753906 125.507812 233.59375 124.960938 234.410156 C 124.417969 235.222656 123.835938 236.007812 123.214844 236.765625 C 122.59375 237.523438 121.9375 238.246094 121.242188 238.941406 C 120.550781 239.632812 119.828125 240.289062 119.070312 240.910156 C 118.3125 241.53125 117.527344 242.113281 116.710938 242.660156 C 115.898438 243.203125 115.058594 243.707031 114.195312 244.167969 C 113.332031 244.628906 112.449219 245.046875 111.542969 245.421875 C 110.640625 245.796875 109.71875 246.125 108.78125 246.410156 C 107.84375 246.695312 106.894531 246.933594 105.933594 247.121094 C 104.972656 247.3125 104.007812 247.457031 103.03125 247.554688 C 102.058594 247.648438 101.082031 247.699219 100.101562 247.699219 C 99.121094 247.699219 98.144531 247.648438 97.171875 247.554688 C 96.195312 247.457031 95.230469 247.3125 94.269531 247.121094 C 93.308594 246.933594 92.359375 246.695312 91.421875 246.410156 C 90.484375 246.125 89.5625 245.796875 88.660156 245.421875 C 87.753906 245.046875 86.871094 244.628906 86.007812 244.167969 C 85.144531 243.707031 84.304688 243.203125 83.488281 242.660156 C 82.675781 242.113281 81.890625 241.53125 81.132812 240.910156 C 80.375 240.289062 79.652344 239.632812 78.957031 238.941406 C 78.265625 238.246094 77.609375 237.523438 76.988281 236.765625 C 76.367188 236.007812 75.785156 235.222656 75.242188 234.410156 C 74.695312 233.59375 74.195312 232.753906 73.730469 231.890625 C 73.269531 231.027344 72.851562 230.144531 72.476562 229.238281 C 72.101562 228.335938 71.773438 227.414062 71.488281 226.476562 C 71.203125 225.539062 70.96875 224.589844 70.777344 223.628906 C 70.585938 222.671875 70.441406 221.703125 70.34375 220.726562 C 70.25 219.753906 70.203125 218.777344 70.203125 217.796875 C 70.203125 216.816406 70.25 215.839844 70.34375 214.867188 C 70.441406 213.890625 70.585938 212.925781 70.777344 211.964844 C 70.96875 211.003906 71.203125 210.054688 71.488281 209.117188 C 71.773438 208.179688 72.101562 207.261719 72.476562 206.355469 C 72.851562 205.449219 73.269531 204.566406 73.730469 203.703125 C 74.195312 202.839844 74.695312 202 75.242188 201.1875 C 75.785156 200.371094 76.367188 199.585938 76.988281 198.828125 C 77.609375 198.070312 78.265625 197.347656 78.957031 196.65625 C 79.652344 195.960938 80.375 195.304688 81.132812 194.683594 C 81.890625 194.0625 82.675781 193.480469 83.488281 192.9375 C 84.304688 192.390625 85.144531 191.890625 86.007812 191.429688 C 86.871094 190.964844 87.753906 190.546875 88.660156 190.171875 C 89.5625 189.796875 90.484375 189.46875 91.421875 189.183594 C 92.359375 188.902344 93.308594 188.664062 94.269531 188.472656 C 95.230469 188.28125 96.195312 188.136719 97.171875 188.042969 C 98.144531 187.945312 99.121094 187.898438 100.101562 187.898438 C 101.082031 187.898438 102.058594 187.945312 103.03125 188.042969 C 104.007812 188.136719 104.972656 188.28125 105.933594 188.472656 C 106.894531 188.664062 107.84375 188.902344 108.78125 189.183594 C 109.71875 189.46875 110.640625 189.796875 111.542969 190.171875 C 112.449219 190.546875 113.332031 190.964844 114.195312 191.429688 C 115.058594 191.890625 115.898438 192.390625 116.710938 192.9375 C 117.527344 193.480469 118.3125 194.0625 119.070312 194.683594 C 119.828125 195.304688 120.550781 195.960938 121.242188 196.65625 C 121.9375 197.347656 122.59375 198.070312 123.214844 198.828125 C 123.835938 199.585938 124.417969 200.371094 124.960938 201.1875 C 125.507812 202 126.007812 202.839844 126.472656 203.703125 C 126.933594 204.566406 127.351562 205.449219 127.726562 206.355469 C 128.101562 207.261719 128.429688 208.179688 128.714844 209.117188 C 129 210.054688 129.234375 211.003906 129.425781 211.964844 C 129.617188 212.925781 129.761719 213.890625 129.855469 214.867188 C 129.953125 215.839844 130 216.816406 130 217.796875 Z M 130 217.796875 " fill-opacity="1" fill-rule="nonzero"/><path fill="#f5b461" d="M 128.851562 217.796875 C 128.851562 218.738281 128.804688 219.679688 128.710938 220.617188 C 128.621094 221.550781 128.484375 222.484375 128.300781 223.40625 C 128.113281 224.328125 127.886719 225.242188 127.613281 226.144531 C 127.339844 227.042969 127.023438 227.929688 126.664062 228.800781 C 126.300781 229.667969 125.902344 230.519531 125.457031 231.351562 C 125.011719 232.179688 124.527344 232.988281 124.007812 233.769531 C 123.484375 234.554688 122.921875 235.308594 122.324219 236.035156 C 121.726562 236.765625 121.097656 237.460938 120.429688 238.125 C 119.765625 238.792969 119.066406 239.425781 118.339844 240.019531 C 117.613281 240.617188 116.855469 241.179688 116.074219 241.703125 C 115.292969 242.226562 114.484375 242.707031 113.652344 243.152344 C 112.824219 243.597656 111.972656 244 111.101562 244.359375 C 110.234375 244.71875 109.347656 245.035156 108.445312 245.308594 C 107.546875 245.582031 106.632812 245.8125 105.710938 245.996094 C 104.785156 246.179688 103.855469 246.316406 102.917969 246.410156 C 101.980469 246.5 101.042969 246.546875 100.101562 246.546875 C 99.160156 246.546875 98.21875 246.5 97.285156 246.410156 C 96.347656 246.316406 95.414062 246.179688 94.492188 245.996094 C 93.570312 245.8125 92.65625 245.582031 91.753906 245.308594 C 90.855469 245.035156 89.96875 244.71875 89.097656 244.359375 C 88.230469 244 87.378906 243.597656 86.546875 243.152344 C 85.71875 242.707031 84.910156 242.226562 84.128906 241.703125 C 83.347656 241.179688 82.589844 240.617188 81.863281 240.019531 C 81.132812 239.425781 80.4375 238.792969 79.773438 238.125 C 79.105469 237.460938 78.476562 236.765625 77.878906 236.035156 C 77.28125 235.308594 76.71875 234.554688 76.195312 233.769531 C 75.671875 232.988281 75.191406 232.179688 74.746094 231.351562 C 74.300781 230.519531 73.898438 229.667969 73.539062 228.800781 C 73.179688 227.929688 72.863281 227.042969 72.589844 226.144531 C 72.316406 225.242188 72.085938 224.328125 71.902344 223.40625 C 71.71875 222.484375 71.582031 221.550781 71.488281 220.617188 C 71.398438 219.679688 71.351562 218.738281 71.351562 217.796875 C 71.351562 216.855469 71.398438 215.917969 71.488281 214.980469 C 71.582031 214.042969 71.71875 213.113281 71.902344 212.1875 C 72.085938 211.265625 72.316406 210.351562 72.589844 209.453125 C 72.863281 208.550781 73.179688 207.664062 73.539062 206.796875 C 73.898438 205.925781 74.300781 205.074219 74.746094 204.246094 C 75.191406 203.414062 75.671875 202.609375 76.195312 201.824219 C 76.71875 201.042969 77.28125 200.285156 77.878906 199.558594 C 78.476562 198.832031 79.105469 198.132812 79.773438 197.46875 C 80.4375 196.800781 81.132812 196.171875 81.863281 195.574219 C 82.589844 194.976562 83.347656 194.414062 84.128906 193.894531 C 84.910156 193.371094 85.71875 192.886719 86.546875 192.441406 C 87.378906 192 88.230469 191.597656 89.097656 191.234375 C 89.96875 190.875 90.855469 190.558594 91.753906 190.285156 C 92.65625 190.011719 93.570312 189.785156 94.492188 189.601562 C 95.414062 189.417969 96.347656 189.277344 97.285156 189.1875 C 98.21875 189.09375 99.160156 189.046875 100.101562 189.046875 C 101.042969 189.046875 101.980469 189.09375 102.917969 189.1875 C 103.855469 189.277344 104.785156 189.417969 105.710938 189.601562 C 106.632812 189.785156 107.546875 190.011719 108.445312 190.285156 C 109.347656 190.558594 110.234375 190.875 111.101562 191.234375 C 111.972656 191.597656 112.824219 192 113.652344 192.441406 C 114.484375 192.886719 115.292969 193.371094 116.074219 193.894531 C 116.855469 194.414062 117.613281 194.976562 118.339844 195.574219 C 119.066406 196.171875 119.765625 196.800781 120.429688 197.46875 C 121.097656 198.132812 121.726562 198.832031 122.324219 199.558594 C 122.921875 200.285156 123.484375 201.042969 124.007812 201.824219 C 124.527344 202.609375 125.011719 203.414062 125.457031 204.246094 C 125.902344 205.074219 126.300781 205.925781 126.664062 206.796875 C 127.023438 207.664062 127.339844 208.550781 127.613281 209.453125 C 127.886719 210.351562 128.113281 211.265625 128.300781 212.1875 C 128.484375 213.113281 128.621094 214.042969 128.710938 214.980469 C 128.804688 215.917969 128.851562 216.855469 128.851562 217.796875 Z M 128.851562 217.796875 " fill-opacity="1" fill-rule="nonzero"/><path fill="#f5b461" d="M 100.101562 184.449219 C 81.6875 184.449219 66.75 199.382812 66.75 217.796875 C 66.75 236.210938 81.6875 251.148438 100.101562 251.148438 C 118.515625 251.148438 133.453125 236.210938 133.453125 217.796875 C 133.453125 199.382812 118.515625 184.449219 100.101562 184.449219 Z M 118.285156 241.53125 C 117.28125 242.308594 116.214844 243.011719 115.125 243.65625 C 115.125 243.65625 115.125 243.65625 115.125 243.671875 C 115.125 243.671875 115.125 243.671875 115.125 243.65625 C 113.125 244.824219 110.984375 245.757812 108.726562 246.433594 C 105.996094 247.25 103.089844 247.699219 100.101562 247.699219 C 99.253906 247.699219 98.40625 247.652344 97.570312 247.582031 C 97.570312 247.582031 97.570312 247.582031 97.570312 247.597656 C 97.570312 247.597656 97.570312 247.597656 97.570312 247.582031 C 91.246094 247.050781 85.46875 244.550781 80.882812 240.695312 C 74.355469 235.207031 70.203125 226.996094 70.203125 217.796875 C 70.203125 201.28125 83.585938 187.898438 100.101562 187.898438 C 116.617188 187.898438 130 201.28125 130 217.796875 C 130 227.472656 125.402344 236.054688 118.285156 241.53125 Z M 118.285156 241.53125 " fill-opacity="1" fill-rule="nonzero"/><path fill="#f5b461" d="M 120.800781 185.597656 C 120.800781 185.75 120.773438 185.898438 120.714844 186.039062 C 120.65625 186.179688 120.574219 186.300781 120.464844 186.410156 C 120.355469 186.519531 120.230469 186.601562 120.089844 186.660156 C 119.949219 186.71875 119.804688 186.746094 119.652344 186.746094 C 119.5 186.746094 119.351562 186.71875 119.210938 186.660156 C 119.070312 186.601562 118.945312 186.519531 118.839844 186.410156 C 118.730469 186.300781 118.648438 186.179688 118.589844 186.039062 C 118.53125 185.898438 118.5 185.75 118.5 185.597656 C 118.5 185.445312 118.53125 185.296875 118.589844 185.15625 C 118.648438 185.015625 118.730469 184.890625 118.839844 184.785156 C 118.945312 184.675781 119.070312 184.59375 119.210938 184.535156 C 119.351562 184.476562 119.5 184.449219 119.652344 184.449219 C 119.804688 184.449219 119.949219 184.476562 120.089844 184.535156 C 120.230469 184.59375 120.355469 184.675781 120.464844 184.785156 C 120.574219 184.890625 120.65625 185.015625 120.714844 185.15625 C 120.773438 185.296875 120.800781 185.445312 120.800781 185.597656 Z M 120.800781 185.597656 " fill-opacity="1" fill-rule="nonzero"/><path fill="#f5b461" d="M 81.703125 249.996094 C 81.703125 250.148438 81.671875 250.296875 81.613281 250.4375 C 81.554688 250.578125 81.472656 250.703125 81.363281 250.808594 C 81.257812 250.917969 81.132812 251 80.992188 251.058594 C 80.851562 251.117188 80.703125 251.148438 80.550781 251.148438 C 80.398438 251.148438 80.253906 251.117188 80.109375 251.058594 C 79.96875 251 79.847656 250.917969 79.738281 250.808594 C 79.628906 250.703125 79.546875 250.578125 79.488281 250.4375 C 79.429688 250.296875 79.402344 250.148438 79.402344 249.996094 C 79.402344 249.84375 79.429688 249.699219 79.488281 249.558594 C 79.546875 249.417969 79.628906 249.292969 79.738281 249.183594 C 79.847656 249.078125 79.96875 248.992188 80.109375 248.933594 C 80.253906 248.875 80.398438 248.847656 80.550781 248.847656 C 80.703125 248.847656 80.851562 248.875 80.992188 248.933594 C 81.132812 248.992188 81.257812 249.078125 81.363281 249.183594 C 81.472656 249.292969 81.554688 249.417969 81.613281 249.558594 C 81.671875 249.699219 81.703125 249.84375 81.703125 249.996094 Z M 81.703125 249.996094 " fill-opacity="1" fill-rule="nonzero"/><path fill="#f5b461" d="M 110.710938 232.015625 L 108.882812 230.175781 L 105.9375 228.175781 L 108.710938 224.265625 C 112.9375 225.53125 113.296875 222.855469 113.484375 221.808594 C 113.570312 221.347656 113.125 221.003906 112.335938 220.644531 L 113.066406 218.328125 L 112.792969 216.1875 L 114.476562 216.074219 C 115.339844 216.015625 115.828125 215.050781 115.367188 214.320312 L 112.953125 210.421875 L 113.800781 208.496094 L 112.105469 202.804688 C 112.765625 202.660156 113.355469 202.273438 113.742188 201.667969 C 114.503906 200.433594 114.074219 198.808594 112.808594 198.105469 C 111.703125 197.5 110.582031 196.882812 110.4375 196.824219 C 106.972656 195.414062 103.363281 195.472656 99.871094 196.636719 C 96.882812 197.628906 93.832031 198.679688 92.023438 201.46875 C 90.371094 204.011719 90.226562 207.160156 90.613281 210.078125 C 90.945312 212.523438 91.632812 214.90625 92.367188 217.25 C 92.613281 218.027344 92.871094 218.789062 93.15625 219.550781 L 92.078125 223.085938 C 91.648438 222.84375 91.40625 222.714844 91.40625 222.714844 L 90.5 225.949219 L 90.066406 226.722656 L 83.828125 232.976562 L 83.84375 232.976562 C 82.363281 233.824219 81.296875 235.347656 81.125 237.1875 L 80.96875 239.230469 C 86.070312 243.789062 92.769531 246.546875 100.101562 246.546875 C 106.757812 246.546875 112.894531 244.261719 117.769531 240.453125 C 115.238281 235.621094 110.710938 232.015625 110.710938 232.015625 Z M 110.710938 232.015625 " fill-opacity="1" fill-rule="nonzero"/><path fill="#eda54a" d="M 78.914062 237.21875 C 84.171875 242.9375 91.71875 246.546875 100.101562 246.546875 C 107.605469 246.546875 114.433594 243.65625 119.566406 238.941406 C 117.019531 234.34375 112.996094 230.921875 112.261719 230.316406 L 110.363281 228.40625 L 109.1875 227.601562 L 109.734375 226.839844 C 110.0625 226.882812 110.394531 226.898438 110.695312 226.898438 C 112.292969 226.898438 115.066406 226.292969 115.753906 222.195312 C 115.886719 221.476562 115.796875 220.585938 115.023438 219.738281 L 115.394531 218.542969 L 115.351562 218.230469 C 116.257812 217.96875 117.019531 217.351562 117.464844 216.476562 C 118.011719 215.398438 117.96875 214.132812 117.324219 213.097656 L 115.539062 210.222656 L 116.246094 208.625 L 114.835938 203.882812 C 115.167969 203.582031 115.453125 203.234375 115.699219 202.847656 C 116.386719 201.726562 116.589844 200.347656 116.257812 199.066406 C 115.929688 197.789062 115.066406 196.695312 113.914062 196.0625 C 111.617188 194.796875 111.472656 194.738281 111.300781 194.667969 C 109.285156 193.847656 107.1875 193.445312 105.03125 193.445312 C 103.089844 193.445312 101.109375 193.777344 99.136719 194.4375 C 96.121094 195.445312 92.351562 196.710938 90.082031 200.203125 C 88.371094 202.847656 87.78125 206.269531 88.328125 210.378906 C 88.789062 213.570312 89.75 216.617188 90.730469 219.679688 C 90.859375 220.097656 88.832031 224.023438 88.15625 225.085938 C 86.820312 227.226562 84.761719 228.894531 82.980469 230.578125 C 81.960938 231.539062 80.839844 232.316406 80.121094 233.550781 C 79.515625 234.574219 79.1875 235.722656 78.984375 236.886719 C 78.96875 236.972656 78.941406 237.089844 78.914062 237.21875 Z M 78.914062 237.21875 " fill-opacity="1" fill-rule="nonzero"/><g clip-path="url(#347e38664c)"><path fill="#000000" d="M 100.101562 183.296875 C 81.082031 183.296875 65.601562 198.777344 65.601562 217.796875 C 65.601562 236.816406 81.082031 252.296875 100.101562 252.296875 C 119.121094 252.296875 134.601562 236.816406 134.601562 217.796875 C 134.601562 198.777344 119.121094 183.296875 100.101562 183.296875 Z M 100.101562 249.996094 C 82.347656 249.996094 67.902344 235.550781 67.902344 217.796875 C 67.902344 200.042969 82.347656 185.597656 100.101562 185.597656 C 117.855469 185.597656 132.300781 200.042969 132.300781 217.796875 C 132.300781 235.550781 117.855469 249.996094 100.101562 249.996094 Z M 100.101562 249.996094 " fill-opacity="1" fill-rule="nonzero"/></g><path fill="#000000" d="M 100.804688 217.351562 C 100.257812 217.667969 100.074219 218.371094 100.390625 218.917969 L 101.410156 220.6875 C 101.625 221.058594 102.011719 221.261719 102.402344 221.261719 C 102.601562 221.261719 102.789062 221.21875 102.976562 221.105469 C 103.523438 220.789062 103.710938 220.082031 103.394531 219.535156 L 102.371094 217.769531 C 102.070312 217.222656 101.367188 217.035156 100.804688 217.351562 Z M 100.804688 217.351562 " fill-opacity="1" fill-rule="nonzero"/><path fill="#000000" d="M 120.800781 229.871094 L 115.050781 229.871094 C 114.734375 229.871094 114.476562 230.132812 114.476562 230.449219 C 114.476562 230.761719 114.734375 231.023438 115.050781 231.023438 L 120.800781 231.023438 C 121.117188 231.023438 121.375 230.761719 121.375 230.449219 C 121.375 230.132812 121.117188 229.871094 120.800781 229.871094 Z M 120.800781 229.871094 " fill-opacity="1" fill-rule="nonzero"/><path fill="#000000" d="M 120.800781 233.324219 L 118.5 233.324219 C 118.183594 233.324219 117.925781 233.582031 117.925781 233.898438 C 117.925781 234.214844 118.183594 234.472656 118.5 234.472656 L 120.800781 234.472656 C 121.117188 234.472656 121.375 234.214844 121.375 233.898438 C 121.375 233.582031 121.117188 233.324219 120.800781 233.324219 Z M 120.800781 233.324219 " fill-opacity="1" fill-rule="nonzero"/><path fill="#000000" d="M 85.152344 220.671875 L 74.800781 220.671875 C 74.484375 220.671875 74.226562 220.929688 74.226562 221.246094 C 74.226562 221.5625 74.484375 221.824219 74.800781 221.824219 L 85.152344 221.824219 C 85.46875 221.824219 85.726562 221.5625 85.726562 221.246094 C 85.726562 220.929688 85.46875 220.671875 85.152344 220.671875 Z M 85.152344 220.671875 " fill-opacity="1" fill-rule="nonzero"/><path fill="#000000" d="M 100.101562 186.746094 C 82.980469 186.746094 69.050781 200.675781 69.050781 217.796875 C 69.050781 227.257812 73.304688 235.738281 79.992188 241.429688 C 80.035156 241.472656 80.078125 241.5 80.121094 241.542969 C 84.890625 245.570312 90.886719 248.171875 97.46875 248.71875 C 97.5 248.71875 97.542969 248.730469 97.570312 248.730469 C 97.570312 248.730469 97.585938 248.730469 97.585938 248.730469 C 98.417969 248.804688 99.238281 248.847656 100.085938 248.847656 C 103.21875 248.847656 106.238281 248.371094 109.101562 247.511719 C 109.113281 247.496094 109.144531 247.496094 109.15625 247.496094 C 111.398438 246.804688 113.542969 245.871094 115.539062 244.722656 C 115.554688 244.707031 115.582031 244.722656 115.597656 244.707031 C 115.65625 244.679688 115.683594 244.636719 115.726562 244.605469 C 116.863281 243.945312 117.941406 243.210938 118.976562 242.421875 C 119.019531 242.378906 119.078125 242.351562 119.121094 242.308594 C 126.4375 236.613281 131.152344 227.746094 131.152344 217.796875 C 131.152344 200.675781 117.222656 186.746094 100.101562 186.746094 Z M 86.917969 233.453125 C 87.882812 233.539062 88.800781 233.953125 89.464844 234.585938 C 89.96875 235.191406 92.871094 240.625 95.617188 246.1875 C 90.542969 245.382812 85.914062 243.253906 82.089844 240.164062 L 82.304688 237.304688 C 82.507812 234.976562 84.578125 233.25 86.917969 233.453125 Z M 98.320312 246.488281 C 96.480469 242.738281 91.980469 233.855469 91.101562 232.992188 C 90.066406 231.984375 88.714844 231.367188 87.277344 231.195312 L 90.46875 227.988281 L 99.167969 234.875 L 98.320312 235.304688 C 97.988281 235.464844 97.757812 235.78125 97.699219 236.140625 C 97.644531 236.5 97.757812 236.871094 98.015625 237.132812 C 98.015625 237.132812 102.859375 242.046875 106.542969 245.800781 C 104.472656 246.273438 102.328125 246.53125 100.117188 246.53125 C 99.496094 246.546875 98.90625 246.519531 98.320312 246.488281 Z M 111.976562 211.027344 L 114.390625 214.921875 L 112.695312 215.050781 C 112.378906 215.082031 112.089844 215.222656 111.890625 215.46875 C 111.6875 215.714844 111.601562 216.027344 111.644531 216.34375 L 111.875 218.242188 L 111.585938 219.132812 C 111.355469 219.046875 111.113281 218.960938 110.855469 218.875 C 109.660156 218.445312 108.179688 217.914062 106.683594 217.164062 C 103.667969 215.65625 105.203125 209.128906 105.234375 209.058594 C 105.390625 208.4375 105.015625 207.820312 104.398438 207.664062 C 103.78125 207.503906 103.164062 207.878906 103.003906 208.496094 C 102.917969 208.839844 100.964844 216.847656 105.664062 219.21875 C 107.289062 220.039062 108.839844 220.601562 110.09375 221.046875 C 110.898438 221.332031 111.890625 221.691406 112.292969 221.9375 C 112.175781 222.542969 112.003906 223.074219 111.542969 223.316406 C 111.054688 223.5625 109.777344 223.761719 106.683594 222.238281 C 106.109375 221.964844 105.421875 222.195312 105.148438 222.769531 C 104.875 223.347656 105.105469 224.035156 105.679688 224.308594 C 106.109375 224.523438 106.511719 224.699219 106.902344 224.855469 L 105.648438 226.625 L 95.414062 219.722656 C 97.585938 218.5 100.53125 216.433594 100.488281 214.160156 C 100.476562 213.714844 100.214844 213.3125 99.800781 213.140625 C 98.363281 212.507812 97.773438 211.558594 98.144531 210.464844 C 98.433594 209.632812 99.210938 209.042969 99.828125 209.199219 C 101.152344 209.53125 103.265625 208.527344 106.023438 202.128906 L 110.234375 203.78125 C 110.582031 203.910156 110.925781 203.984375 111.269531 204.011719 L 112.59375 208.4375 L 111.917969 209.976562 C 111.746094 210.308594 111.773438 210.710938 111.976562 211.027344 Z M 115.582031 242.003906 C 114 239.015625 111.757812 236.023438 109.460938 233.796875 L 110.507812 233.351562 C 111.746094 234.445312 114.964844 237.460938 116.832031 241.15625 C 116.417969 241.445312 116 241.730469 115.582031 242.003906 Z M 109.058594 245.109375 C 106.355469 242.335938 102.601562 238.527344 100.761719 236.65625 L 101.8125 236.125 C 102.15625 235.953125 102.402344 235.609375 102.445312 235.21875 C 102.488281 234.832031 102.328125 234.445312 102.011719 234.199219 L 91.691406 226.035156 L 92.125 224.46875 C 93.832031 225.460938 97.109375 227.429688 100.734375 229.929688 C 100.691406 230 100.632812 230.074219 100.605469 230.144531 C 100.433594 230.546875 100.503906 231.007812 100.777344 231.339844 L 103.984375 235.21875 C 104.210938 235.492188 104.527344 235.636719 104.875 235.636719 C 105.015625 235.636719 105.175781 235.609375 105.320312 235.550781 L 107.128906 234.789062 C 109.503906 236.871094 111.976562 240.078125 113.597656 243.183594 C 112.148438 243.945312 110.636719 244.59375 109.058594 245.109375 Z M 93.804688 221.390625 L 105.40625 229.226562 C 104.886719 229.253906 104.355469 229.28125 103.839844 229.3125 C 99.582031 226.234375 95.53125 223.777344 93.429688 222.554688 Z M 105.203125 233.09375 L 103.984375 231.613281 C 105.765625 231.511719 107.589844 231.394531 108.425781 231.351562 L 108.683594 231.613281 Z M 112.765625 201.066406 C 112.40625 201.640625 111.703125 201.871094 111.070312 201.625 L 105.808594 199.570312 C 105.21875 199.339844 104.558594 199.628906 104.328125 200.203125 C 103.003906 203.464844 101.109375 206.628906 100.300781 206.929688 C 98.535156 206.542969 96.652344 207.734375 95.976562 209.691406 C 95.457031 211.199219 95.730469 213.339844 97.988281 214.75 C 97.414062 215.667969 95.644531 216.964844 93.804688 217.957031 C 93.691406 217.609375 93.574219 217.265625 93.460938 216.921875 C 92.753906 214.707031 92.066406 212.320312 91.75 209.949219 C 91.316406 206.671875 91.71875 204.039062 92.972656 202.113281 C 94.582031 199.640625 97.441406 198.679688 100.214844 197.746094 C 101.855469 197.199219 103.464844 196.925781 105.03125 196.925781 C 106.726562 196.925781 108.382812 197.242188 109.960938 197.886719 C 110.019531 197.917969 110.351562 198.089844 112.234375 199.125 C 112.5625 199.3125 112.808594 199.613281 112.910156 199.988281 C 113.023438 200.347656 112.96875 200.734375 112.765625 201.066406 Z M 118.671875 239.71875 C 116.15625 235.03125 111.976562 231.570312 111.472656 231.167969 L 109.6875 229.382812 C 109.660156 229.355469 109.632812 229.339844 109.601562 229.324219 C 109.574219 229.296875 109.558594 229.269531 109.515625 229.238281 L 107.546875 227.902344 L 109.199219 225.589844 C 109.734375 225.703125 110.234375 225.777344 110.695312 225.777344 C 111.414062 225.777344 112.046875 225.632812 112.59375 225.359375 C 114.1875 224.539062 114.476562 222.828125 114.621094 222.007812 C 114.765625 221.160156 114.390625 220.585938 113.714844 220.113281 L 114.160156 218.6875 C 114.203125 218.53125 114.21875 218.359375 114.203125 218.199219 L 114.089844 217.25 L 114.578125 217.207031 C 115.382812 217.152344 116.085938 216.675781 116.460938 215.957031 C 116.832031 215.238281 116.789062 214.390625 116.359375 213.699219 L 114.261719 210.324219 L 114.863281 208.957031 C 114.980469 208.710938 114.992188 208.425781 114.90625 208.167969 L 113.511719 203.464844 C 113.988281 203.179688 114.417969 202.777344 114.71875 202.273438 C 115.253906 201.410156 115.410156 200.375 115.152344 199.398438 C 114.894531 198.40625 114.261719 197.601562 113.355469 197.097656 C 111.113281 195.859375 110.96875 195.804688 110.867188 195.761719 C 107.273438 194.308594 103.449219 194.238281 99.496094 195.558594 C 96.492188 196.566406 93.085938 197.699219 91.046875 200.847656 C 89.492188 203.25 88.960938 206.414062 89.464844 210.25 C 89.808594 212.808594 90.527344 215.296875 91.261719 217.625 C 91.476562 218.285156 91.707031 218.949219 91.9375 219.59375 L 91.316406 221.621094 C 91.1875 221.636719 91.058594 221.636719 90.945312 221.691406 C 90.628906 221.824219 90.382812 222.109375 90.28125 222.441406 L 89.335938 225.863281 L 83.050781 232.171875 C 82.808594 232.332031 82.5625 232.472656 82.332031 232.660156 C 80.984375 233.78125 80.164062 235.363281 80.003906 237.117188 L 79.917969 238.238281 C 74.628906 233.035156 71.351562 225.789062 71.351562 217.796875 C 71.351562 201.941406 84.246094 189.046875 100.101562 189.046875 C 115.957031 189.046875 128.851562 201.941406 128.851562 217.796875 C 128.851562 226.582031 124.898438 234.445312 118.671875 239.71875 Z M 118.671875 239.71875 " fill-opacity="1" fill-rule="nonzero"/><path fill="#000000" d="M 100.101562 190.773438 C 91.175781 190.773438 82.824219 195.183594 77.777344 202.558594 C 77.605469 202.820312 77.660156 203.179688 77.921875 203.363281 C 78.179688 203.550781 78.539062 203.480469 78.726562 203.222656 C 83.554688 196.148438 91.546875 191.921875 100.101562 191.921875 C 108.65625 191.921875 116.648438 196.148438 121.476562 203.207031 C 121.59375 203.363281 121.765625 203.449219 121.953125 203.449219 C 122.066406 203.449219 122.179688 203.421875 122.28125 203.351562 C 122.539062 203.179688 122.613281 202.820312 122.425781 202.546875 C 117.378906 195.183594 109.027344 190.773438 100.101562 190.773438 Z M 100.101562 190.773438 " fill-opacity="1" fill-rule="nonzero"/><g clip-path="url(#381db624d8)"><path fill="#000000" d="M 130.578125 184.449219 C 130.578125 184.132812 130.316406 183.871094 130 183.871094 C 129.683594 183.871094 129.425781 184.132812 129.425781 184.449219 L 129.425781 185.597656 C 129.425781 185.914062 129.683594 186.171875 130 186.171875 C 130.316406 186.171875 130.578125 185.914062 130.578125 185.597656 Z M 130.578125 184.449219 " fill-opacity="1" fill-rule="nonzero"/></g><g clip-path="url(#7c69a0edea)"><path fill="#000000" d="M 132.300781 188.472656 L 133.453125 188.472656 C 133.765625 188.472656 134.027344 188.214844 134.027344 187.898438 C 134.027344 187.582031 133.765625 187.324219 133.453125 187.324219 L 132.300781 187.324219 C 131.984375 187.324219 131.726562 187.582031 131.726562 187.898438 C 131.726562 188.214844 131.984375 188.472656 132.300781 188.472656 Z M 132.300781 188.472656 " fill-opacity="1" fill-rule="nonzero"/></g><path fill="#000000" d="M 130 189.621094 C 129.683594 189.621094 129.425781 189.882812 129.425781 190.199219 L 129.425781 191.347656 C 129.425781 191.664062 129.683594 191.921875 130 191.921875 C 130.316406 191.921875 130.578125 191.664062 130.578125 191.347656 L 130.578125 190.199219 C 130.578125 189.882812 130.316406 189.621094 130 189.621094 Z M 130 189.621094 " fill-opacity="1" fill-rule="nonzero"/><path fill="#000000" d="M 126.550781 188.472656 L 127.703125 188.472656 C 128.015625 188.472656 128.277344 188.214844 128.277344 187.898438 C 128.277344 187.582031 128.015625 187.324219 127.703125 187.324219 L 126.550781 187.324219 C 126.234375 187.324219 125.976562 187.582031 125.976562 187.898438 C 125.976562 188.214844 126.234375 188.472656 126.550781 188.472656 Z M 126.550781 188.472656 " fill-opacity="1" fill-rule="nonzero"/><g clip-path="url(#e1eeaadd0e)"><path fill="#000000" d="M 119.652344 187.324219 C 120.601562 187.324219 121.375 186.546875 121.375 185.597656 C 121.375 184.648438 120.601562 183.871094 119.652344 183.871094 C 118.703125 183.871094 117.925781 184.648438 117.925781 185.597656 C 117.925781 186.546875 118.703125 187.324219 119.652344 187.324219 Z M 119.652344 185.023438 C 119.96875 185.023438 120.226562 185.28125 120.226562 185.597656 C 120.226562 185.914062 119.96875 186.171875 119.652344 186.171875 C 119.335938 186.171875 119.078125 185.914062 119.078125 185.597656 C 119.078125 185.28125 119.335938 185.023438 119.652344 185.023438 Z M 119.652344 185.023438 " fill-opacity="1" fill-rule="nonzero"/></g><path fill="#000000" d="M 70.203125 243.671875 C 69.886719 243.671875 69.625 243.929688 69.625 244.246094 L 69.625 245.398438 C 69.625 245.714844 69.886719 245.972656 70.203125 245.972656 C 70.515625 245.972656 70.777344 245.714844 70.777344 245.398438 L 70.777344 244.246094 C 70.777344 243.929688 70.515625 243.671875 70.203125 243.671875 Z M 70.203125 243.671875 " fill-opacity="1" fill-rule="nonzero"/><path fill="#000000" d="M 74.226562 247.699219 C 74.226562 247.382812 73.96875 247.121094 73.652344 247.121094 L 72.5 247.121094 C 72.183594 247.121094 71.925781 247.382812 71.925781 247.699219 C 71.925781 248.011719 72.183594 248.273438 72.5 248.273438 L 73.652344 248.273438 C 73.96875 248.273438 74.226562 248.011719 74.226562 247.699219 Z M 74.226562 247.699219 " fill-opacity="1" fill-rule="nonzero"/><path fill="#000000" d="M 70.203125 249.421875 C 69.886719 249.421875 69.625 249.679688 69.625 249.996094 L 69.625 251.148438 C 69.625 251.464844 69.886719 251.722656 70.203125 251.722656 C 70.515625 251.722656 70.777344 251.464844 70.777344 251.148438 L 70.777344 249.996094 C 70.777344 249.679688 70.515625 249.421875 70.203125 249.421875 Z M 70.203125 249.421875 " fill-opacity="1" fill-rule="nonzero"/><path fill="#000000" d="M 67.902344 247.121094 L 66.75 247.121094 C 66.433594 247.121094 66.175781 247.382812 66.175781 247.699219 C 66.175781 248.011719 66.433594 248.273438 66.75 248.273438 L 67.902344 248.273438 C 68.21875 248.273438 68.476562 248.011719 68.476562 247.699219 C 68.476562 247.382812 68.21875 247.121094 67.902344 247.121094 Z M 67.902344 247.121094 " fill-opacity="1" fill-rule="nonzero"/><path fill="#000000" d="M 82.277344 249.996094 C 82.277344 249.046875 81.5 248.273438 80.550781 248.273438 C 79.601562 248.273438 78.828125 249.046875 78.828125 249.996094 C 78.828125 250.945312 79.601562 251.722656 80.550781 251.722656 C 81.5 251.722656 82.277344 250.945312 82.277344 249.996094 Z M 79.976562 249.996094 C 79.976562 249.679688 80.234375 249.421875 80.550781 249.421875 C 80.867188 249.421875 81.125 249.679688 81.125 249.996094 C 81.125 250.3125 80.867188 250.574219 80.550781 250.574219 C 80.234375 250.574219 79.976562 250.3125 79.976562 249.996094 Z M 79.976562 249.996094 " fill-opacity="1" fill-rule="nonzero"/></svg>