<svg xmlns="http://www.w3.org/2000/svg" xmlns:xlink="http://www.w3.org/1999/xlink" width="800" zoomAndPan="magnify" viewBox="0 0 375 374.999991" height="800" preserveAspectRatio="xMidYMid meet" version="1.0"><defs><clipPath id="dc487bf190"><path d="M 66.429688 66.429688 L 308.679688 66.429688 L 308.679688 308.679688 L 66.429688 308.679688 Z M 66.429688 66.429688 " clip-rule="nonzero"/></clipPath></defs><path fill="#eda54a" d="M 292.527344 187.554688 C 292.527344 189.269531 292.484375 190.988281 292.402344 192.703125 C 292.316406 194.421875 292.191406 196.132812 292.023438 197.84375 C 291.855469 199.550781 291.644531 201.257812 291.390625 202.957031 C 291.140625 204.65625 290.847656 206.347656 290.511719 208.03125 C 290.175781 209.71875 289.800781 211.394531 289.382812 213.058594 C 288.964844 214.726562 288.507812 216.382812 288.007812 218.027344 C 287.507812 219.667969 286.96875 221.300781 286.390625 222.917969 C 285.8125 224.535156 285.195312 226.136719 284.539062 227.726562 C 283.878906 229.3125 283.183594 230.882812 282.449219 232.4375 C 281.714844 233.988281 280.941406 235.523438 280.132812 237.039062 C 279.324219 238.554688 278.476562 240.046875 277.59375 241.519531 C 276.710938 242.996094 275.792969 244.445312 274.835938 245.875 C 273.882812 247.300781 272.894531 248.707031 271.871094 250.085938 C 270.847656 251.464844 269.789062 252.820312 268.699219 254.148438 C 267.609375 255.476562 266.488281 256.777344 265.335938 258.050781 C 264.179688 259.324219 262.996094 260.566406 261.78125 261.78125 C 260.566406 262.996094 259.324219 264.179688 258.050781 265.335938 C 256.777344 266.488281 255.476562 267.609375 254.148438 268.699219 C 252.820312 269.789062 251.464844 270.847656 250.085938 271.871094 C 248.707031 272.894531 247.300781 273.882812 245.875 274.835938 C 244.445312 275.792969 242.996094 276.710938 241.519531 277.59375 C 240.046875 278.476562 238.554688 279.324219 237.039062 280.132812 C 235.523438 280.941406 233.988281 281.714844 232.4375 282.449219 C 230.882812 283.183594 229.3125 283.878906 227.726562 284.539062 C 226.136719 285.195312 224.535156 285.8125 222.917969 286.390625 C 221.300781 286.96875 219.667969 287.507812 218.027344 288.007812 C 216.382812 288.507812 214.726562 288.964844 213.058594 289.382812 C 211.394531 289.800781 209.71875 290.175781 208.03125 290.511719 C 206.347656 290.847656 204.65625 291.140625 202.957031 291.390625 C 201.257812 291.644531 199.550781 291.855469 197.84375 292.023438 C 196.132812 292.191406 194.421875 292.316406 192.703125 292.402344 C 190.988281 292.484375 189.269531 292.527344 187.554688 292.527344 C 185.835938 292.527344 184.117188 292.484375 182.402344 292.402344 C 180.6875 292.316406 178.972656 292.191406 177.265625 292.023438 C 175.554688 291.855469 173.847656 291.644531 172.148438 291.390625 C 170.449219 291.140625 168.757812 290.847656 167.074219 290.511719 C 165.386719 290.175781 163.710938 289.800781 162.046875 289.382812 C 160.378906 288.964844 158.722656 288.507812 157.082031 288.007812 C 155.4375 287.507812 153.804688 286.96875 152.1875 286.390625 C 150.570312 285.8125 148.96875 285.195312 147.382812 284.539062 C 145.792969 283.878906 144.222656 283.183594 142.671875 282.449219 C 141.117188 281.714844 139.582031 280.941406 138.066406 280.132812 C 136.554688 279.324219 135.058594 278.476562 133.585938 277.59375 C 132.113281 276.710938 130.660156 275.792969 129.230469 274.835938 C 127.804688 273.882812 126.398438 272.894531 125.019531 271.871094 C 123.640625 270.847656 122.285156 269.789062 120.957031 268.699219 C 119.628906 267.609375 118.328125 266.488281 117.054688 265.335938 C 115.785156 264.179688 114.539062 262.996094 113.324219 261.78125 C 112.109375 260.566406 110.925781 259.324219 109.773438 258.050781 C 108.617188 256.777344 107.496094 255.476562 106.40625 254.148438 C 105.316406 252.820312 104.261719 251.464844 103.238281 250.085938 C 102.214844 248.707031 101.222656 247.300781 100.269531 245.875 C 99.316406 244.445312 98.394531 242.996094 97.511719 241.519531 C 96.628906 240.046875 95.785156 238.554688 94.972656 237.039062 C 94.164062 235.523438 93.390625 233.988281 92.65625 232.4375 C 91.921875 230.882812 91.226562 229.3125 90.570312 227.726562 C 89.910156 226.136719 89.292969 224.535156 88.714844 222.917969 C 88.136719 221.300781 87.597656 219.667969 87.097656 218.027344 C 86.601562 216.382812 86.140625 214.726562 85.722656 213.058594 C 85.308594 211.394531 84.929688 209.71875 84.59375 208.03125 C 84.261719 206.347656 83.964844 204.65625 83.714844 202.957031 C 83.460938 201.257812 83.253906 199.550781 83.082031 197.84375 C 82.914062 196.132812 82.789062 194.421875 82.703125 192.703125 C 82.621094 190.988281 82.578125 189.269531 82.578125 187.554688 C 82.578125 185.835938 82.621094 184.117188 82.703125 182.402344 C 82.789062 180.6875 82.914062 178.972656 83.082031 177.265625 C 83.253906 175.554688 83.460938 173.847656 83.714844 172.148438 C 83.964844 170.449219 84.261719 168.757812 84.59375 167.074219 C 84.929688 165.386719 85.308594 163.710938 85.722656 162.046875 C 86.140625 160.378906 86.601562 158.722656 87.097656 157.082031 C 87.597656 155.4375 88.136719 153.804688 88.714844 152.1875 C 89.292969 150.570312 89.910156 148.96875 90.570312 147.382812 C 91.226562 145.792969 91.921875 144.222656 92.65625 142.671875 C 93.390625 141.117188 94.164062 139.582031 94.972656 138.066406 C 95.785156 136.554688 96.628906 135.058594 97.511719 133.585938 C 98.394531 132.113281 99.316406 130.660156 100.269531 129.230469 C 101.222656 127.804688 102.214844 126.398438 103.238281 125.019531 C 104.261719 123.640625 105.316406 122.285156 106.40625 120.957031 C 107.496094 119.628906 108.617188 118.328125 109.773438 117.054688 C 110.925781 115.785156 112.109375 114.539062 113.324219 113.324219 C 114.539062 112.109375 115.785156 110.925781 117.054688 109.773438 C 118.328125 108.617188 119.628906 107.496094 120.957031 106.40625 C 122.285156 105.316406 123.640625 104.261719 125.019531 103.238281 C 126.398438 102.214844 127.804688 101.222656 129.230469 100.269531 C 130.660156 99.316406 132.113281 98.394531 133.585938 97.511719 C 135.058594 96.628906 136.554688 95.785156 138.066406 94.972656 C 139.582031 94.164062 141.117188 93.390625 142.671875 92.65625 C 144.222656 91.921875 145.792969 91.226562 147.382812 90.570312 C 148.96875 89.910156 150.570312 89.292969 152.1875 88.714844 C 153.804688 88.136719 155.4375 87.597656 157.082031 87.097656 C 158.722656 86.601562 160.378906 86.140625 162.046875 85.722656 C 163.710938 85.308594 165.386719 84.929688 167.074219 84.59375 C 168.757812 84.261719 170.449219 83.964844 172.148438 83.714844 C 173.847656 83.460938 175.554688 83.253906 177.265625 83.082031 C 178.972656 82.914062 180.6875 82.789062 182.402344 82.703125 C 184.117188 82.621094 185.835938 82.578125 187.554688 82.578125 C 189.269531 82.578125 190.988281 82.621094 192.703125 82.703125 C 194.421875 82.789062 196.132812 82.914062 197.84375 83.082031 C 199.550781 83.253906 201.257812 83.460938 202.957031 83.714844 C 204.65625 83.964844 206.347656 84.261719 208.03125 84.59375 C 209.71875 84.929688 211.394531 85.308594 213.058594 85.722656 C 214.726562 86.140625 216.382812 86.601562 218.027344 87.097656 C 219.667969 87.597656 221.300781 88.136719 222.917969 88.714844 C 224.535156 89.292969 226.136719 89.910156 227.726562 90.570312 C 229.3125 91.226562 230.882812 91.921875 232.4375 92.65625 C 233.988281 93.390625 235.523438 94.164062 237.039062 94.972656 C 238.554688 95.785156 240.046875 96.628906 241.519531 97.511719 C 242.996094 98.394531 244.445312 99.316406 245.875 100.269531 C 247.300781 101.222656 248.707031 102.214844 250.085938 103.238281 C 251.464844 104.261719 252.820312 105.316406 254.148438 106.40625 C 255.476562 107.496094 256.777344 108.617188 258.050781 109.773438 C 259.324219 110.925781 260.566406 112.109375 261.78125 113.324219 C 262.996094 114.539062 264.179688 115.785156 265.335938 117.054688 C 266.488281 118.328125 267.609375 119.628906 268.699219 120.957031 C 269.789062 122.285156 270.847656 123.640625 271.871094 125.019531 C 272.894531 126.398438 273.882812 127.804688 274.835938 129.230469 C 275.792969 130.660156 276.710938 132.113281 277.59375 133.585938 C 278.476562 135.058594 279.324219 136.554688 280.132812 138.066406 C 280.941406 139.582031 281.714844 141.117188 282.449219 142.671875 C 283.183594 144.222656 283.878906 145.792969 284.539062 147.382812 C 285.195312 148.96875 285.8125 150.570312 286.390625 152.1875 C 286.96875 153.804688 287.507812 155.4375 288.007812 157.082031 C 288.507812 158.722656 288.964844 160.378906 289.382812 162.046875 C 289.800781 163.710938 290.175781 165.386719 290.511719 167.074219 C 290.847656 168.757812 291.140625 170.449219 291.390625 172.148438 C 291.644531 173.847656 291.855469 175.554688 292.023438 177.265625 C 292.191406 178.972656 292.316406 180.6875 292.402344 182.402344 C 292.484375 184.117188 292.527344 185.835938 292.527344 187.554688 Z M 292.527344 187.554688 " fill-opacity="1" fill-rule="nonzero"/><path fill="#f5b461" d="M 288.492188 187.554688 C 288.492188 189.203125 288.449219 190.855469 288.367188 192.507812 C 288.289062 194.15625 288.167969 195.804688 288.003906 197.445312 C 287.84375 199.089844 287.640625 200.730469 287.398438 202.363281 C 287.15625 203.996094 286.875 205.625 286.550781 207.246094 C 286.230469 208.863281 285.867188 210.476562 285.464844 212.078125 C 285.0625 213.679688 284.625 215.273438 284.144531 216.855469 C 283.664062 218.433594 283.148438 220.003906 282.589844 221.558594 C 282.035156 223.113281 281.4375 224.652344 280.808594 226.179688 C 280.175781 227.707031 279.503906 229.214844 278.800781 230.710938 C 278.09375 232.203125 277.351562 233.679688 276.570312 235.132812 C 275.792969 236.589844 274.980469 238.027344 274.128906 239.445312 C 273.28125 240.863281 272.398438 242.257812 271.480469 243.632812 C 270.5625 245.003906 269.609375 246.355469 268.625 247.679688 C 267.644531 249.007812 266.625 250.308594 265.578125 251.585938 C 264.53125 252.863281 263.453125 254.113281 262.34375 255.339844 C 261.234375 256.5625 260.09375 257.757812 258.925781 258.925781 C 257.757812 260.09375 256.5625 261.234375 255.339844 262.34375 C 254.113281 263.453125 252.863281 264.53125 251.585938 265.578125 C 250.308594 266.625 249.007812 267.644531 247.679688 268.625 C 246.355469 269.609375 245.003906 270.5625 243.632812 271.480469 C 242.257812 272.398438 240.863281 273.28125 239.445312 274.128906 C 238.027344 274.980469 236.589844 275.792969 235.132812 276.570312 C 233.679688 277.351562 232.203125 278.09375 230.710938 278.800781 C 229.214844 279.503906 227.707031 280.175781 226.179688 280.808594 C 224.652344 281.4375 223.113281 282.035156 221.558594 282.589844 C 220.003906 283.148438 218.433594 283.664062 216.855469 284.144531 C 215.273438 284.625 213.679688 285.0625 212.078125 285.464844 C 210.476562 285.867188 208.863281 286.230469 207.246094 286.550781 C 205.625 286.875 203.996094 287.15625 202.363281 287.398438 C 200.730469 287.640625 199.089844 287.84375 197.445312 288.003906 C 195.804688 288.167969 194.15625 288.289062 192.507812 288.367188 C 190.855469 288.449219 189.203125 288.492188 187.554688 288.492188 C 185.902344 288.492188 184.25 288.449219 182.601562 288.367188 C 180.949219 288.289062 179.304688 288.167969 177.660156 288.003906 C 176.015625 287.84375 174.375 287.640625 172.742188 287.398438 C 171.109375 287.15625 169.480469 286.875 167.859375 286.550781 C 166.242188 286.230469 164.628906 285.867188 163.027344 285.464844 C 161.425781 285.0625 159.832031 284.625 158.253906 284.144531 C 156.671875 283.664062 155.105469 283.148438 153.546875 282.589844 C 151.992188 282.035156 150.453125 281.4375 148.925781 280.808594 C 147.398438 280.175781 145.890625 279.503906 144.398438 278.800781 C 142.902344 278.09375 141.429688 277.351562 139.972656 276.570312 C 138.515625 275.792969 137.078125 274.980469 135.660156 274.128906 C 134.242188 273.28125 132.847656 272.398438 131.476562 271.480469 C 130.101562 270.5625 128.75 269.609375 127.425781 268.625 C 126.097656 267.644531 124.796875 266.625 123.519531 265.578125 C 122.242188 264.53125 120.992188 263.453125 119.769531 262.34375 C 118.542969 261.234375 117.347656 260.09375 116.179688 258.925781 C 115.011719 257.757812 113.871094 256.5625 112.761719 255.339844 C 111.652344 254.113281 110.574219 252.863281 109.527344 251.585938 C 108.480469 250.308594 107.464844 249.007812 106.480469 247.679688 C 105.496094 246.355469 104.542969 245.003906 103.625 243.632812 C 102.707031 242.257812 101.824219 240.863281 100.976562 239.445312 C 100.125 238.027344 99.3125 236.589844 98.535156 235.132812 C 97.753906 233.679688 97.011719 232.203125 96.308594 230.710938 C 95.601562 229.214844 94.929688 227.707031 94.300781 226.179688 C 93.667969 224.652344 93.074219 223.113281 92.515625 221.558594 C 91.960938 220.003906 91.441406 218.433594 90.960938 216.855469 C 90.484375 215.273438 90.042969 213.679688 89.640625 212.078125 C 89.238281 210.476562 88.878906 208.863281 88.554688 207.246094 C 88.234375 205.625 87.949219 203.996094 87.707031 202.363281 C 87.464844 200.730469 87.261719 199.089844 87.101562 197.445312 C 86.941406 195.804688 86.816406 194.15625 86.738281 192.507812 C 86.65625 190.855469 86.617188 189.203125 86.617188 187.554688 C 86.617188 185.902344 86.65625 184.25 86.738281 182.601562 C 86.816406 180.949219 86.941406 179.304688 87.101562 177.660156 C 87.261719 176.015625 87.464844 174.375 87.707031 172.742188 C 87.949219 171.109375 88.234375 169.480469 88.554688 167.859375 C 88.878906 166.242188 89.238281 164.628906 89.640625 163.027344 C 90.042969 161.425781 90.484375 159.832031 90.960938 158.253906 C 91.441406 156.671875 91.960938 155.105469 92.515625 153.546875 C 93.074219 151.992188 93.667969 150.453125 94.300781 148.925781 C 94.929688 147.398438 95.601562 145.890625 96.308594 144.398438 C 97.011719 142.902344 97.753906 141.429688 98.535156 139.972656 C 99.3125 138.515625 100.125 137.078125 100.976562 135.660156 C 101.824219 134.242188 102.707031 132.847656 103.625 131.476562 C 104.542969 130.101562 105.496094 128.75 106.480469 127.425781 C 107.464844 126.097656 108.480469 124.796875 109.527344 123.519531 C 110.574219 122.242188 111.652344 120.992188 112.761719 119.769531 C 113.871094 118.542969 115.011719 117.347656 116.179688 116.179688 C 117.347656 115.011719 118.542969 113.871094 119.769531 112.761719 C 120.992188 111.652344 122.242188 110.574219 123.519531 109.527344 C 124.796875 108.480469 126.097656 107.464844 127.425781 106.480469 C 128.75 105.496094 130.101562 104.542969 131.476562 103.625 C 132.847656 102.707031 134.242188 101.824219 135.660156 100.976562 C 137.078125 100.125 138.515625 99.3125 139.972656 98.535156 C 141.429688 97.753906 142.902344 97.011719 144.398438 96.308594 C 145.890625 95.601562 147.398438 94.929688 148.925781 94.300781 C 150.453125 93.667969 151.992188 93.074219 153.546875 92.515625 C 155.105469 91.960938 156.671875 91.441406 158.253906 90.960938 C 159.832031 90.484375 161.425781 90.042969 163.027344 89.640625 C 164.628906 89.238281 166.242188 88.878906 167.859375 88.554688 C 169.480469 88.234375 171.109375 87.949219 172.742188 87.707031 C 174.375 87.464844 176.015625 87.261719 177.660156 87.101562 C 179.304688 86.941406 180.949219 86.816406 182.601562 86.738281 C 184.25 86.65625 185.902344 86.617188 187.554688 86.617188 C 189.203125 86.617188 190.855469 86.65625 192.507812 86.738281 C 194.15625 86.816406 195.804688 86.941406 197.445312 87.101562 C 199.089844 87.261719 200.730469 87.464844 202.363281 87.707031 C 203.996094 87.949219 205.625 88.234375 207.246094 88.554688 C 208.863281 88.878906 210.476562 89.238281 212.078125 89.640625 C 213.679688 90.042969 215.273438 90.484375 216.855469 90.960938 C 218.433594 91.441406 220.003906 91.960938 221.558594 92.515625 C 223.113281 93.074219 224.652344 93.667969 226.179688 94.300781 C 227.707031 94.929688 229.214844 95.601562 230.710938 96.308594 C 232.203125 97.011719 233.679688 97.753906 235.132812 98.535156 C 236.589844 99.3125 238.027344 100.125 239.445312 100.976562 C 240.863281 101.824219 242.257812 102.707031 243.632812 103.625 C 245.003906 104.542969 246.355469 105.496094 247.679688 106.480469 C 249.007812 107.464844 250.308594 108.480469 251.585938 109.527344 C 252.863281 110.574219 254.113281 111.652344 255.339844 112.761719 C 256.5625 113.871094 257.757812 115.011719 258.925781 116.179688 C 260.09375 117.347656 261.234375 118.542969 262.34375 119.769531 C 263.453125 120.992188 264.53125 122.242188 265.578125 123.519531 C 266.625 124.796875 267.644531 126.097656 268.625 127.425781 C 269.609375 128.75 270.5625 130.101562 271.480469 131.476562 C 272.398438 132.847656 273.28125 134.242188 274.128906 135.660156 C 274.980469 137.078125 275.792969 138.515625 276.570312 139.972656 C 277.351562 141.429688 278.09375 142.902344 278.800781 144.398438 C 279.503906 145.890625 280.175781 147.398438 280.808594 148.925781 C 281.4375 150.453125 282.035156 151.992188 282.589844 153.546875 C 283.148438 155.105469 283.664062 156.671875 284.144531 158.253906 C 284.625 159.832031 285.0625 161.425781 285.464844 163.027344 C 285.867188 164.628906 286.230469 166.242188 286.550781 167.859375 C 286.875 169.480469 287.15625 171.109375 287.398438 172.742188 C 287.640625 174.375 287.84375 176.015625 288.003906 177.660156 C 288.167969 179.304688 288.289062 180.949219 288.367188 182.601562 C 288.449219 184.25 288.492188 185.902344 288.492188 187.554688 Z M 288.492188 187.554688 " fill-opacity="1" fill-rule="nonzero"/><path fill="#f5b461" d="M 187.554688 70.464844 C 122.902344 70.464844 70.464844 122.902344 70.464844 187.554688 C 70.464844 252.203125 122.902344 304.640625 187.554688 304.640625 C 252.203125 304.640625 304.640625 252.203125 304.640625 187.554688 C 304.640625 122.902344 252.203125 70.464844 187.554688 70.464844 Z M 251.394531 270.878906 C 247.863281 273.601562 244.128906 276.074219 240.292969 278.347656 C 240.292969 278.347656 240.292969 278.347656 240.292969 278.398438 C 240.292969 278.398438 240.292969 278.398438 240.292969 278.347656 C 233.277344 282.433594 225.757812 285.714844 217.835938 288.085938 C 208.246094 290.964844 198.050781 292.527344 187.554688 292.527344 C 184.574219 292.527344 181.597656 292.375 178.671875 292.125 C 178.671875 292.125 178.671875 292.125 178.671875 292.175781 C 178.671875 292.175781 178.671875 292.175781 178.671875 292.125 C 156.464844 290.257812 136.175781 281.476562 120.078125 267.949219 C 97.164062 248.671875 82.578125 219.851562 82.578125 187.554688 C 82.578125 129.566406 129.566406 82.578125 187.554688 82.578125 C 245.542969 82.578125 292.527344 129.566406 292.527344 187.554688 C 292.527344 221.519531 276.378906 251.648438 251.394531 270.878906 Z M 251.394531 270.878906 " fill-opacity="1" fill-rule="nonzero"/><path fill="#f5b461" d="M 260.226562 74.503906 C 260.226562 74.769531 260.203125 75.03125 260.152344 75.289062 C 260.097656 75.550781 260.023438 75.804688 259.921875 76.046875 C 259.820312 76.292969 259.695312 76.527344 259.546875 76.746094 C 259.398438 76.964844 259.234375 77.171875 259.046875 77.359375 C 258.859375 77.546875 258.652344 77.714844 258.433594 77.859375 C 258.214844 78.007812 257.980469 78.132812 257.734375 78.234375 C 257.492188 78.335938 257.238281 78.410156 256.976562 78.464844 C 256.71875 78.515625 256.457031 78.539062 256.191406 78.539062 C 255.925781 78.539062 255.664062 78.515625 255.402344 78.464844 C 255.144531 78.410156 254.890625 78.335938 254.644531 78.234375 C 254.402344 78.132812 254.167969 78.007812 253.949219 77.859375 C 253.726562 77.714844 253.523438 77.546875 253.335938 77.359375 C 253.148438 77.171875 252.980469 76.964844 252.832031 76.746094 C 252.6875 76.527344 252.5625 76.292969 252.460938 76.046875 C 252.359375 75.804688 252.28125 75.550781 252.230469 75.289062 C 252.179688 75.03125 252.152344 74.769531 252.152344 74.503906 C 252.152344 74.238281 252.179688 73.976562 252.230469 73.714844 C 252.28125 73.457031 252.359375 73.203125 252.460938 72.957031 C 252.5625 72.714844 252.6875 72.480469 252.832031 72.261719 C 252.980469 72.039062 253.148438 71.835938 253.335938 71.648438 C 253.523438 71.460938 253.726562 71.292969 253.949219 71.144531 C 254.167969 71 254.402344 70.875 254.644531 70.773438 C 254.890625 70.671875 255.144531 70.59375 255.402344 70.542969 C 255.664062 70.492188 255.925781 70.464844 256.191406 70.464844 C 256.457031 70.464844 256.71875 70.492188 256.976562 70.542969 C 257.238281 70.59375 257.492188 70.671875 257.734375 70.773438 C 257.980469 70.875 258.214844 71 258.433594 71.144531 C 258.652344 71.292969 258.859375 71.460938 259.046875 71.648438 C 259.234375 71.835938 259.398438 72.039062 259.546875 72.261719 C 259.695312 72.480469 259.820312 72.714844 259.921875 72.957031 C 260.023438 73.203125 260.097656 73.457031 260.152344 73.714844 C 260.203125 73.976562 260.226562 74.238281 260.226562 74.503906 Z M 260.226562 74.503906 " fill-opacity="1" fill-rule="nonzero"/><path fill="#f5b461" d="M 122.953125 300.601562 C 122.953125 300.867188 122.925781 301.128906 122.875 301.390625 C 122.824219 301.652344 122.746094 301.902344 122.644531 302.148438 C 122.542969 302.394531 122.421875 302.625 122.273438 302.847656 C 122.125 303.066406 121.957031 303.269531 121.769531 303.457031 C 121.582031 303.644531 121.378906 303.8125 121.160156 303.960938 C 120.9375 304.105469 120.707031 304.230469 120.460938 304.332031 C 120.214844 304.433594 119.964844 304.511719 119.703125 304.5625 C 119.441406 304.613281 119.179688 304.640625 118.914062 304.640625 C 118.652344 304.640625 118.386719 304.613281 118.128906 304.5625 C 117.867188 304.511719 117.617188 304.433594 117.371094 304.332031 C 117.125 304.230469 116.894531 304.105469 116.671875 303.960938 C 116.453125 303.8125 116.25 303.644531 116.0625 303.457031 C 115.875 303.269531 115.707031 303.066406 115.558594 302.847656 C 115.410156 302.625 115.285156 302.394531 115.183594 302.148438 C 115.085938 301.902344 115.007812 301.652344 114.957031 301.390625 C 114.902344 301.128906 114.878906 300.867188 114.878906 300.601562 C 114.878906 300.339844 114.902344 300.074219 114.957031 299.816406 C 115.007812 299.554688 115.085938 299.304688 115.183594 299.058594 C 115.285156 298.8125 115.410156 298.582031 115.558594 298.359375 C 115.707031 298.140625 115.875 297.9375 116.0625 297.75 C 116.25 297.5625 116.453125 297.394531 116.671875 297.246094 C 116.894531 297.097656 117.125 296.972656 117.371094 296.871094 C 117.617188 296.773438 117.867188 296.695312 118.128906 296.644531 C 118.386719 296.589844 118.652344 296.566406 118.914062 296.566406 C 119.179688 296.566406 119.441406 296.589844 119.703125 296.644531 C 119.964844 296.695312 120.214844 296.773438 120.460938 296.871094 C 120.707031 296.972656 120.9375 297.097656 121.160156 297.246094 C 121.378906 297.394531 121.582031 297.5625 121.769531 297.75 C 121.957031 297.9375 122.125 298.140625 122.273438 298.359375 C 122.421875 298.582031 122.542969 298.8125 122.644531 299.058594 C 122.746094 299.304688 122.824219 299.554688 122.875 299.816406 C 122.925781 300.074219 122.953125 300.339844 122.953125 300.601562 Z M 122.953125 300.601562 " fill-opacity="1" fill-rule="nonzero"/><path fill="#f5b461" d="M 224.800781 237.464844 L 218.390625 231.007812 L 208.042969 223.992188 L 217.785156 210.265625 C 232.621094 214.707031 233.882812 205.316406 234.539062 201.632812 C 234.84375 200.019531 233.277344 198.808594 230.503906 197.546875 L 233.074219 189.421875 L 232.117188 181.902344 L 238.023438 181.496094 C 241.050781 181.296875 242.765625 177.914062 241.152344 175.339844 L 232.671875 161.664062 L 235.648438 154.898438 L 229.695312 134.914062 C 232.015625 134.410156 234.085938 133.046875 235.449219 130.925781 C 238.121094 126.585938 236.609375 120.882812 232.167969 118.410156 C 228.28125 116.292969 224.34375 114.121094 223.839844 113.917969 C 211.675781 108.972656 199.007812 109.175781 186.746094 113.261719 C 176.25 116.746094 165.546875 120.429688 159.191406 130.21875 C 153.386719 139.152344 152.882812 150.207031 154.242188 160.453125 C 155.40625 169.03125 157.828125 177.410156 160.402344 185.636719 C 161.257812 188.359375 162.167969 191.035156 163.175781 193.710938 L 159.390625 206.125 C 157.878906 205.269531 157.019531 204.8125 157.019531 204.8125 L 153.839844 216.167969 L 152.324219 218.894531 L 130.421875 240.847656 L 130.472656 240.847656 C 125.273438 243.824219 121.539062 249.175781 120.933594 255.636719 L 120.378906 262.800781 C 138.296875 278.800781 161.8125 288.492188 187.554688 288.492188 C 210.921875 288.492188 232.46875 280.464844 249.578125 267.09375 C 240.695312 250.132812 224.800781 237.464844 224.800781 237.464844 Z M 224.800781 237.464844 " fill-opacity="1" fill-rule="nonzero"/><path fill="#eda54a" d="M 113.164062 255.738281 C 131.632812 275.824219 158.128906 288.492188 187.554688 288.492188 C 213.898438 288.492188 237.871094 278.347656 255.886719 261.792969 C 246.953125 245.644531 232.824219 233.632812 230.25 231.511719 L 223.585938 224.800781 L 219.449219 221.972656 L 221.367188 219.296875 C 222.527344 219.449219 223.6875 219.5 224.75 219.5 C 230.351562 219.5 240.089844 217.378906 242.511719 202.996094 C 242.96875 200.472656 242.664062 197.34375 239.941406 194.367188 L 241.25 190.175781 L 241.101562 189.066406 C 244.28125 188.160156 246.953125 185.988281 248.519531 182.910156 C 250.4375 179.125 250.285156 174.683594 248.015625 171.050781 L 241.757812 160.957031 L 244.230469 155.355469 L 239.285156 138.699219 C 240.445312 137.640625 241.453125 136.429688 242.3125 135.066406 C 244.734375 131.128906 245.441406 126.285156 244.28125 121.792969 C 243.121094 117.300781 240.089844 113.464844 236.054688 111.246094 C 227.980469 106.804688 227.472656 106.601562 226.867188 106.347656 C 219.800781 103.472656 212.433594 102.058594 204.863281 102.058594 C 198.050781 102.058594 191.085938 103.21875 184.171875 105.542969 C 173.574219 109.074219 160.351562 113.515625 152.375 125.78125 C 146.371094 135.066406 144.300781 147.078125 146.21875 161.511719 C 147.835938 172.714844 151.214844 183.414062 154.648438 194.164062 C 155.101562 195.628906 147.984375 209.40625 145.613281 213.140625 C 140.921875 220.660156 133.703125 226.515625 127.445312 232.417969 C 123.863281 235.800781 119.925781 238.527344 117.402344 242.867188 C 115.28125 246.449219 114.121094 250.488281 113.414062 254.574219 C 113.363281 254.878906 113.261719 255.28125 113.164062 255.738281 Z M 113.164062 255.738281 " fill-opacity="1" fill-rule="nonzero"/><g clip-path="url(#dc487bf190)"><path fill="#000000" d="M 187.554688 66.429688 C 120.78125 66.429688 66.429688 120.78125 66.429688 187.554688 C 66.429688 254.324219 120.78125 308.679688 187.554688 308.679688 C 254.324219 308.679688 308.679688 254.324219 308.679688 187.554688 C 308.679688 120.78125 254.324219 66.429688 187.554688 66.429688 Z M 187.554688 300.601562 C 125.222656 300.601562 74.503906 249.882812 74.503906 187.554688 C 74.503906 125.222656 125.222656 74.503906 187.554688 74.503906 C 249.882812 74.503906 300.601562 125.222656 300.601562 187.554688 C 300.601562 249.882812 249.882812 300.601562 187.554688 300.601562 Z M 187.554688 300.601562 " fill-opacity="1" fill-rule="nonzero"/></g><path fill="#000000" d="M 190.027344 185.988281 C 188.109375 187.097656 187.453125 189.570312 188.5625 191.488281 L 192.144531 197.699219 C 192.902344 199.007812 194.265625 199.714844 195.628906 199.714844 C 196.335938 199.714844 196.992188 199.566406 197.648438 199.160156 C 199.566406 198.050781 200.222656 195.578125 199.109375 193.660156 L 195.527344 187.453125 C 194.46875 185.535156 191.996094 184.878906 190.027344 185.988281 Z M 190.027344 185.988281 " fill-opacity="1" fill-rule="nonzero"/><path fill="#000000" d="M 260.226562 229.945312 L 240.039062 229.945312 C 238.929688 229.945312 238.023438 230.855469 238.023438 231.964844 C 238.023438 233.074219 238.929688 233.984375 240.039062 233.984375 L 260.226562 233.984375 C 261.339844 233.984375 262.246094 233.074219 262.246094 231.964844 C 262.246094 230.855469 261.339844 229.945312 260.226562 229.945312 Z M 260.226562 229.945312 " fill-opacity="1" fill-rule="nonzero"/><path fill="#000000" d="M 260.226562 242.058594 L 252.152344 242.058594 C 251.042969 242.058594 250.132812 242.96875 250.132812 244.078125 C 250.132812 245.1875 251.042969 246.097656 252.152344 246.097656 L 260.226562 246.097656 C 261.339844 246.097656 262.246094 245.1875 262.246094 244.078125 C 262.246094 242.96875 261.339844 242.058594 260.226562 242.058594 Z M 260.226562 242.058594 " fill-opacity="1" fill-rule="nonzero"/><path fill="#000000" d="M 135.066406 197.648438 L 98.726562 197.648438 C 97.617188 197.648438 96.710938 198.554688 96.710938 199.664062 C 96.710938 200.777344 97.617188 201.683594 98.726562 201.683594 L 135.066406 201.683594 C 136.175781 201.683594 137.085938 200.777344 137.085938 199.664062 C 137.085938 198.554688 136.175781 197.648438 135.066406 197.648438 Z M 135.066406 197.648438 " fill-opacity="1" fill-rule="nonzero"/><path fill="#000000" d="M 187.554688 78.539062 C 127.445312 78.539062 78.539062 127.445312 78.539062 187.554688 C 78.539062 220.761719 93.480469 250.539062 116.949219 270.523438 C 117.097656 270.675781 117.25 270.777344 117.402344 270.925781 C 134.15625 285.058594 155.203125 294.195312 178.316406 296.113281 C 178.417969 296.113281 178.570312 296.160156 178.671875 296.160156 C 178.671875 296.160156 178.722656 296.160156 178.722656 296.160156 C 181.648438 296.414062 184.523438 296.566406 187.503906 296.566406 C 198.503906 296.566406 209.101562 294.898438 219.148438 291.871094 C 219.195312 291.820312 219.296875 291.820312 219.347656 291.820312 C 227.222656 289.398438 234.742188 286.117188 241.757812 282.082031 C 241.808594 282.03125 241.90625 282.082031 241.957031 282.03125 C 242.160156 281.929688 242.261719 281.777344 242.414062 281.675781 C 246.398438 279.355469 250.183594 276.78125 253.820312 274.007812 C 253.96875 273.855469 254.171875 273.753906 254.324219 273.601562 C 280.011719 253.617188 296.566406 222.476562 296.566406 187.554688 C 296.566406 127.445312 247.660156 78.539062 187.554688 78.539062 Z M 141.273438 242.511719 C 144.65625 242.816406 147.882812 244.28125 150.207031 246.5 C 151.972656 248.621094 162.167969 267.699219 171.808594 287.230469 C 153.992188 284.402344 137.742188 276.933594 124.316406 266.082031 L 125.074219 256.039062 C 125.78125 247.863281 133.046875 241.808594 141.273438 242.511719 Z M 181.296875 288.289062 C 174.835938 275.117188 159.039062 243.925781 155.960938 240.898438 C 152.324219 237.367188 147.582031 235.195312 142.535156 234.589844 L 153.738281 223.335938 L 184.273438 247.511719 L 181.296875 249.023438 C 180.132812 249.578125 179.328125 250.691406 179.125 251.953125 C 178.921875 253.214844 179.328125 254.523438 180.234375 255.433594 C 180.234375 255.433594 197.242188 272.695312 210.164062 285.867188 C 202.894531 287.53125 195.375 288.441406 187.605469 288.441406 C 185.433594 288.492188 183.363281 288.390625 181.296875 288.289062 Z M 229.242188 163.78125 L 237.71875 177.460938 L 231.765625 177.914062 C 230.652344 178.015625 229.644531 178.519531 228.9375 179.378906 C 228.230469 180.234375 227.929688 181.34375 228.078125 182.457031 L 228.886719 189.117188 L 227.878906 192.246094 C 227.070312 191.945312 226.210938 191.640625 225.304688 191.339844 C 221.113281 189.824219 215.917969 187.957031 210.667969 185.332031 C 200.070312 180.035156 205.46875 157.121094 205.570312 156.867188 C 206.125 154.699219 204.8125 152.527344 202.644531 151.972656 C 200.472656 151.417969 198.304688 152.730469 197.746094 154.898438 C 197.445312 156.109375 190.582031 184.222656 207.085938 192.550781 C 212.789062 195.425781 218.238281 197.394531 222.628906 198.960938 C 225.457031 199.96875 228.9375 201.230469 230.351562 202.089844 C 229.945312 204.207031 229.339844 206.074219 227.726562 206.933594 C 226.011719 207.792969 221.519531 208.496094 210.667969 203.148438 C 208.648438 202.1875 206.226562 202.996094 205.269531 205.015625 C 204.308594 207.035156 205.117188 209.457031 207.136719 210.414062 C 208.648438 211.171875 210.0625 211.777344 211.425781 212.332031 L 207.035156 218.539062 L 171.101562 194.316406 C 178.722656 190.027344 189.066406 182.757812 188.914062 174.785156 C 188.867188 173.21875 187.957031 171.808594 186.492188 171.203125 C 181.445312 168.980469 179.378906 165.648438 180.6875 161.8125 C 181.699219 158.886719 184.425781 156.816406 186.59375 157.371094 C 191.238281 158.535156 198.65625 155 208.347656 132.542969 L 223.132812 138.347656 C 224.34375 138.800781 225.554688 139.050781 226.765625 139.152344 L 231.410156 154.699219 L 229.039062 160.097656 C 228.433594 161.257812 228.535156 162.671875 229.242188 163.78125 Z M 241.90625 272.542969 C 236.355469 262.046875 228.484375 251.546875 220.410156 243.726562 L 224.09375 242.160156 C 228.433594 245.996094 239.738281 256.59375 246.296875 269.566406 C 244.835938 270.574219 243.371094 271.582031 241.90625 272.542969 Z M 218.996094 283.445312 C 209.507812 273.703125 196.335938 260.328125 189.875 253.769531 L 193.558594 251.902344 C 194.769531 251.296875 195.628906 250.082031 195.78125 248.722656 C 195.929688 247.359375 195.375 245.996094 194.265625 245.136719 L 158.027344 216.472656 L 159.542969 210.96875 C 165.546875 214.453125 177.054688 221.367188 189.773438 230.148438 C 189.621094 230.402344 189.421875 230.652344 189.320312 230.90625 C 188.714844 232.320312 188.964844 233.933594 189.925781 235.09375 L 201.179688 248.722656 C 201.988281 249.679688 203.097656 250.183594 204.308594 250.183594 C 204.8125 250.183594 205.367188 250.082031 205.875 249.882812 L 212.230469 247.207031 C 220.558594 254.523438 229.242188 265.78125 234.941406 276.679688 C 229.847656 279.355469 224.546875 281.625 218.996094 283.445312 Z M 165.449219 200.171875 L 206.175781 227.675781 C 204.359375 227.777344 202.492188 227.878906 200.675781 227.980469 C 185.734375 217.179688 171.503906 208.546875 164.136719 204.257812 Z M 205.46875 241.25 L 201.179688 236.054688 C 207.4375 235.699219 213.847656 235.296875 216.773438 235.144531 L 217.683594 236.054688 Z M 232.015625 128.808594 C 230.753906 130.828125 228.28125 131.632812 226.0625 130.777344 L 207.589844 123.558594 C 205.519531 122.75 203.199219 123.761719 202.390625 125.78125 C 197.746094 137.234375 191.085938 148.339844 188.257812 149.398438 C 182.050781 148.035156 175.441406 152.226562 173.070312 159.089844 C 171.25 164.386719 172.210938 171.90625 180.132812 176.855469 C 178.117188 180.082031 171.90625 184.625 165.449219 188.109375 C 165.042969 186.898438 164.640625 185.6875 164.238281 184.472656 C 161.761719 176.703125 159.339844 168.324219 158.230469 159.996094 C 156.714844 148.492188 158.128906 139.253906 162.519531 132.492188 C 168.171875 123.8125 178.214844 120.429688 187.957031 117.148438 C 193.710938 115.230469 199.363281 114.273438 204.863281 114.273438 C 210.820312 114.273438 216.625 115.382812 222.175781 117.652344 C 222.375 117.753906 223.539062 118.359375 230.148438 121.996094 C 231.308594 122.648438 232.167969 123.710938 232.519531 125.023438 C 232.925781 126.285156 232.722656 127.648438 232.015625 128.808594 Z M 252.757812 264.519531 C 243.925781 248.066406 229.242188 235.902344 227.472656 234.488281 L 221.214844 228.230469 C 221.113281 228.128906 221.015625 228.078125 220.914062 228.027344 C 220.8125 227.929688 220.761719 227.828125 220.609375 227.726562 L 213.695312 223.03125 L 219.5 214.90625 C 221.367188 215.3125 223.132812 215.5625 224.75 215.5625 C 227.273438 215.5625 229.492188 215.058594 231.410156 214.101562 C 237.011719 211.222656 238.023438 205.21875 238.527344 202.339844 C 239.03125 199.363281 237.71875 197.34375 235.347656 195.679688 L 236.910156 190.683594 C 237.0625 190.128906 237.113281 189.519531 237.0625 188.964844 L 236.660156 185.636719 L 238.375 185.484375 C 241.203125 185.28125 243.675781 183.617188 244.988281 181.09375 C 246.296875 178.570312 246.148438 175.59375 244.632812 173.167969 L 237.265625 161.308594 L 239.382812 156.515625 C 239.789062 155.65625 239.839844 154.648438 239.535156 153.738281 L 234.640625 137.234375 C 236.304688 136.226562 237.820312 134.8125 238.878906 133.046875 C 240.746094 130.019531 241.300781 126.386719 240.394531 122.953125 C 239.484375 119.472656 237.265625 116.644531 234.085938 114.878906 C 226.210938 110.539062 225.707031 110.335938 225.355469 110.183594 C 212.738281 105.085938 199.3125 104.835938 185.433594 109.476562 C 174.886719 113.011719 162.925781 116.996094 155.757812 128.050781 C 150.308594 136.480469 148.441406 147.582031 150.207031 161.058594 C 151.417969 170.039062 153.941406 178.773438 156.515625 186.949219 C 157.273438 189.269531 158.078125 191.589844 158.886719 193.863281 L 156.714844 200.976562 C 156.261719 201.027344 155.808594 201.027344 155.40625 201.230469 C 154.292969 201.683594 153.4375 202.695312 153.082031 203.855469 L 149.753906 215.867188 L 127.695312 238.023438 C 126.839844 238.578125 125.980469 239.082031 125.171875 239.738281 C 120.429688 243.675781 117.554688 249.226562 116.996094 255.382812 L 116.695312 259.320312 C 98.121094 241.050781 86.617188 215.613281 86.617188 187.554688 C 86.617188 131.886719 131.886719 86.617188 187.554688 86.617188 C 243.21875 86.617188 288.492188 131.886719 288.492188 187.554688 C 288.492188 218.390625 274.613281 245.996094 252.757812 264.519531 Z M 252.757812 264.519531 " fill-opacity="1" fill-rule="nonzero"/><path fill="#000000" d="M 187.554688 92.671875 C 156.210938 92.671875 126.890625 108.164062 109.175781 134.054688 C 108.570312 134.964844 108.769531 136.226562 109.679688 136.882812 C 110.589844 137.539062 111.851562 137.285156 112.507812 136.378906 C 129.464844 111.546875 157.523438 96.710938 187.554688 96.710938 C 217.582031 96.710938 245.644531 111.546875 262.601562 136.328125 C 263.003906 136.882812 263.609375 137.183594 264.265625 137.183594 C 264.667969 137.183594 265.074219 137.085938 265.425781 136.832031 C 266.335938 136.226562 266.585938 134.964844 265.929688 134.003906 C 248.214844 108.164062 218.894531 92.671875 187.554688 92.671875 Z M 187.554688 92.671875 " fill-opacity="1" fill-rule="nonzero"/><path fill="#000000" d="M 294.546875 70.464844 C 294.546875 69.355469 293.636719 68.445312 292.527344 68.445312 C 291.417969 68.445312 290.507812 69.355469 290.507812 70.464844 L 290.507812 74.503906 C 290.507812 75.613281 291.417969 76.523438 292.527344 76.523438 C 293.636719 76.523438 294.546875 75.613281 294.546875 74.503906 Z M 294.546875 70.464844 " fill-opacity="1" fill-rule="nonzero"/><path fill="#000000" d="M 300.601562 84.597656 L 304.640625 84.597656 C 305.75 84.597656 306.660156 83.6875 306.660156 82.578125 C 306.660156 81.46875 305.75 80.558594 304.640625 80.558594 L 300.601562 80.558594 C 299.492188 80.558594 298.585938 81.46875 298.585938 82.578125 C 298.585938 83.6875 299.492188 84.597656 300.601562 84.597656 Z M 300.601562 84.597656 " fill-opacity="1" fill-rule="nonzero"/><path fill="#000000" d="M 292.527344 88.632812 C 291.417969 88.632812 290.507812 89.542969 290.507812 90.652344 L 290.507812 94.691406 C 290.507812 95.800781 291.417969 96.710938 292.527344 96.710938 C 293.636719 96.710938 294.546875 95.800781 294.546875 94.691406 L 294.546875 90.652344 C 294.546875 89.542969 293.636719 88.632812 292.527344 88.632812 Z M 292.527344 88.632812 " fill-opacity="1" fill-rule="nonzero"/><path fill="#000000" d="M 280.414062 84.597656 L 284.453125 84.597656 C 285.5625 84.597656 286.472656 83.6875 286.472656 82.578125 C 286.472656 81.46875 285.5625 80.558594 284.453125 80.558594 L 280.414062 80.558594 C 279.304688 80.558594 278.398438 81.46875 278.398438 82.578125 C 278.398438 83.6875 279.304688 84.597656 280.414062 84.597656 Z M 280.414062 84.597656 " fill-opacity="1" fill-rule="nonzero"/><path fill="#000000" d="M 256.191406 80.558594 C 259.523438 80.558594 262.246094 77.835938 262.246094 74.503906 C 262.246094 71.171875 259.523438 68.445312 256.191406 68.445312 C 252.859375 68.445312 250.132812 71.171875 250.132812 74.503906 C 250.132812 77.835938 252.859375 80.558594 256.191406 80.558594 Z M 256.191406 72.484375 C 257.300781 72.484375 258.210938 73.394531 258.210938 74.503906 C 258.210938 75.613281 257.300781 76.523438 256.191406 76.523438 C 255.082031 76.523438 254.171875 75.613281 254.171875 74.503906 C 254.171875 73.394531 255.082031 72.484375 256.191406 72.484375 Z M 256.191406 72.484375 " fill-opacity="1" fill-rule="nonzero"/><path fill="#000000" d="M 82.578125 278.398438 C 81.46875 278.398438 80.558594 279.304688 80.558594 280.414062 L 80.558594 284.453125 C 80.558594 285.5625 81.46875 286.472656 82.578125 286.472656 C 83.6875 286.472656 84.597656 285.5625 84.597656 284.453125 L 84.597656 280.414062 C 84.597656 279.304688 83.6875 278.398438 82.578125 278.398438 Z M 82.578125 278.398438 " fill-opacity="1" fill-rule="nonzero"/><path fill="#000000" d="M 96.710938 292.527344 C 96.710938 291.417969 95.800781 290.507812 94.691406 290.507812 L 90.652344 290.507812 C 89.542969 290.507812 88.632812 291.417969 88.632812 292.527344 C 88.632812 293.636719 89.542969 294.546875 90.652344 294.546875 L 94.691406 294.546875 C 95.800781 294.546875 96.710938 293.636719 96.710938 292.527344 Z M 96.710938 292.527344 " fill-opacity="1" fill-rule="nonzero"/><path fill="#000000" d="M 82.578125 298.585938 C 81.46875 298.585938 80.558594 299.492188 80.558594 300.601562 L 80.558594 304.640625 C 80.558594 305.75 81.46875 306.660156 82.578125 306.660156 C 83.6875 306.660156 84.597656 305.75 84.597656 304.640625 L 84.597656 300.601562 C 84.597656 299.492188 83.6875 298.585938 82.578125 298.585938 Z M 82.578125 298.585938 " fill-opacity="1" fill-rule="nonzero"/><path fill="#000000" d="M 74.503906 290.507812 L 70.464844 290.507812 C 69.355469 290.507812 68.445312 291.417969 68.445312 292.527344 C 68.445312 293.636719 69.355469 294.546875 70.464844 294.546875 L 74.503906 294.546875 C 75.613281 294.546875 76.523438 293.636719 76.523438 292.527344 C 76.523438 291.417969 75.613281 290.507812 74.503906 290.507812 Z M 74.503906 290.507812 " fill-opacity="1" fill-rule="nonzero"/><path fill="#000000" d="M 124.972656 300.601562 C 124.972656 297.273438 122.246094 294.546875 118.914062 294.546875 C 115.585938 294.546875 112.859375 297.273438 112.859375 300.601562 C 112.859375 303.933594 115.585938 306.660156 118.914062 306.660156 C 122.246094 306.660156 124.972656 303.933594 124.972656 300.601562 Z M 116.898438 300.601562 C 116.898438 299.492188 117.804688 298.585938 118.914062 298.585938 C 120.027344 298.585938 120.933594 299.492188 120.933594 300.601562 C 120.933594 301.714844 120.027344 302.621094 118.914062 302.621094 C 117.804688 302.621094 116.898438 301.714844 116.898438 300.601562 Z M 116.898438 300.601562 " fill-opacity="1" fill-rule="nonzero"/></svg>